<svg width="251" height="254" viewBox="0 0 251 254" fill="none" xmlns="http://www.w3.org/2000/svg">
<path d="M124.2 254C87.7005 254 58.1128 249.431 58.1128 243.796C58.1128 238.211 87.172 233.673 123.219 233.592C122.043 235.908 121.501 239.031 122.926 242.757C123.759 244.937 125.748 246.488 128.68 247.244C130.101 247.61 131.747 247.782 133.518 247.782C140.627 247.782 149.749 245.022 154.455 241.048C156.684 239.166 158.103 237.151 158.989 235.118C177.776 236.918 190.286 240.131 190.286 243.796C190.286 249.431 160.698 254 124.2 254Z" fill="#292929"/>
<path d="M249.592 95.1041C249.28 100.433 244.891 103.567 235.097 102.381C229.645 101.722 224.297 103.448 220.54 107.889C217.541 111.432 215.557 116.702 215.348 123.864C214.878 140.003 210.256 145.139 210.256 145.139L188.942 140.24C194.351 136.559 196.544 125.666 197.716 113.929C198.305 108.054 200.269 100.358 204.717 93.9821C209.153 87.6177 216.067 82.5654 226.556 81.9406C247.554 80.6885 249.904 89.7749 249.592 95.1041Z" fill="#2C2C2C"/>
<path d="M195.663 137.406C194.99 137.257 194.302 137.113 193.604 136.975C196.253 132.371 198.003 124.969 199.095 114.068C199.377 111.255 200.697 101.965 206.229 94.3145C206.866 94.48 207.543 94.6885 208.244 94.9503C208.002 95.2703 207.767 95.5945 207.539 95.9221C203.091 102.298 201.128 109.994 200.538 115.869C199.701 124.252 198.342 132.205 195.663 137.406Z" fill="#D2D2D2"/>
<path d="M249.592 95.104C249.28 100.433 244.891 103.566 235.097 102.381C229.645 101.722 224.297 103.448 220.54 107.888C216.7 97.6639 209.15 94.784 204.717 93.9819C209.153 87.6176 216.067 82.5653 226.556 81.9405C247.554 80.6884 249.904 89.7748 249.592 95.104Z" fill="white"/>
<path d="M210.524 141.985C209.356 141.505 208.123 141.032 206.823 140.571C208.126 138.439 210.878 132.528 211.236 120.269C211.445 113.107 213.428 107.837 216.427 104.294C216.905 103.729 217.409 103.207 217.936 102.729C218.667 103.832 219.348 105.068 219.956 106.455C216.243 110.504 214.182 116.457 213.967 123.822C213.682 133.608 211.829 139.21 210.524 141.985Z" fill="#121212"/>
<path d="M219.956 106.455C219.348 105.068 218.667 103.832 217.936 102.729C220.981 99.9664 224.785 98.6501 228.755 98.6501C229.494 98.6501 230.238 98.6957 230.985 98.786C232.377 98.9549 233.662 99.0359 234.839 99.0359C241.945 99.0359 245.212 96.0809 245.48 91.509C245.561 90.1387 245.465 88.5218 244.923 86.8957C245.166 87.0967 245.395 87.3044 245.611 87.5214C247.518 89.4261 248.393 91.9506 248.213 95.0238C248.105 96.8517 247.438 98.2896 246.23 99.2985C244.685 100.588 242.196 101.245 238.93 101.245C237.798 101.245 236.573 101.166 235.263 101.007C234.459 100.909 233.663 100.861 232.876 100.861C228.59 100.861 224.603 102.292 221.461 104.996C220.933 105.45 220.431 105.937 219.956 106.455Z" fill="#8898AE"/>
<path d="M210.256 146.52C209.926 146.52 209.595 146.403 209.331 146.165C208.766 145.656 208.718 144.789 209.221 144.221C209.303 144.124 213.525 139.013 213.967 123.822C214.209 115.516 216.8 109.006 221.461 104.996C225.181 101.796 230.082 100.379 235.263 101.007C240.358 101.625 244.151 101.034 246.23 99.2986C247.438 98.2896 248.105 96.8518 248.213 95.0239C248.393 91.9506 247.518 89.4261 245.611 87.5214C242.27 84.1822 235.887 82.768 226.637 83.321C203.213 84.7192 199.584 109.179 199.095 114.068C197.539 129.602 194.648 138.027 189.721 141.383C189.09 141.813 188.229 141.65 187.8 141.018C187.37 140.387 187.533 139.527 188.164 139.097C193.594 135.398 195.432 122.884 196.343 113.793C197.874 98.5049 206.593 81.7472 226.473 80.5601C236.546 79.959 243.641 81.6425 247.566 85.5651C250.021 88.0178 251.199 91.3444 250.973 95.186C250.819 97.8058 249.819 99.9039 248.003 101.421C245.285 103.691 240.888 104.475 234.929 103.752C230.531 103.219 226.388 104.405 223.264 107.092C219.209 110.581 216.95 116.395 216.731 123.903C216.253 140.363 211.486 145.837 211.284 146.063C211.011 146.366 210.634 146.52 210.256 146.52Z" fill="#5F5F5F"/>
<path d="M202.454 110.166C203.378 111.24 205.967 114.373 207.191 112.427C208.136 110.17 206.642 107.839 205.502 105.762C205.429 105.64 205.469 105.48 205.592 105.41C205.673 105.365 205.767 105.367 205.842 105.41C207.849 106.552 209.453 108.517 209.742 110.895C210.19 114.252 206.962 116.731 204.058 114.46C202.786 113.433 202.089 112.032 201.72 110.525C201.612 110.097 202.186 109.823 202.454 110.166Z" fill="white"/>
<path d="M234.311 177.459C227.516 185.751 224.987 180.797 213.03 180.319C212.444 180.292 211.832 180.28 211.197 180.28C197.641 180.28 179.619 181.769 179.619 181.769C171.939 192.037 158.147 197.678 158.147 197.678C158.147 197.678 158.337 212.821 158.546 219.667C158.57 220.41 158.594 221.058 158.618 221.575C158.851 226.865 160.616 234.036 153.565 239.993C146.509 245.947 127.075 249.747 124.216 242.265C121.359 234.782 127.368 230.824 127.368 230.824C126.337 229.378 125.4 227.664 124.559 225.767C118.854 212.955 117.282 192.037 117.282 192.037C103.103 180.753 98.2796 163.004 98.2796 163.004C93.9256 167.871 88.4148 172.465 82.6431 176.356C69.5151 185.214 55.0319 190.425 49.6985 186.941C42.0187 181.927 39.4309 167.902 49.6985 160.847C52.8595 158.673 58.133 154.901 63.3998 151.097C71.6799 145.119 79.9447 139.063 79.9447 139.063C79.9447 139.063 139.437 90.853 144.276 86.2507C146.612 84.0302 151.265 79.1789 156.152 74.032C161.406 68.501 166.93 62.6221 170.137 59.2955C176.328 52.8679 191.684 52.3976 195.366 63.7323C199.052 75.0663 192.703 81.862 182.593 94.7056C182.543 94.7723 182.487 94.8398 182.435 94.9065C172.385 107.651 162.611 117.749 162.611 117.749C172.093 123.078 181.654 136.637 181.654 136.637C200.455 138.423 212.626 143.859 219.488 148.062C224.359 151.041 226.556 153.403 226.556 153.403C229.531 146.589 236.508 143.922 241.13 148.544C245.752 153.17 241.442 168.764 234.311 177.459Z" fill="#2C2C2C"/>
<path d="M217.839 150.571C198.351 141.039 183.653 140.671 183.653 140.671L181.941 138.052C200.131 139.845 211.989 145.148 218.683 149.222C218.408 149.638 218.125 150.088 217.839 150.571Z" fill="#D2D2D2"/>
<path d="M66.4029 153.352C65.7807 152.842 65.1745 152.374 64.5894 151.942C68.4605 149.146 72.3012 146.354 75.2672 144.192C76.451 144.27 77.6321 144.316 78.8218 144.328C75.8135 146.525 71.1538 149.919 66.4029 153.352ZM148.109 87.4968C148.533 86.0978 148.881 84.7081 149.153 83.3327C151.372 81.0582 154.063 78.2408 156.867 75.2882C157.221 75.8877 157.615 76.5268 158.051 77.1947C154.23 81.2186 150.581 85.0273 148.109 87.4968Z" fill="#D2D2D2"/>
<path d="M82.6431 176.356C69.5151 185.214 55.0319 190.425 49.6985 186.94C42.0187 181.927 39.4309 167.902 49.6985 160.846C52.8595 158.673 58.133 154.901 63.3998 151.096C69.0212 154.952 77.1949 162.557 82.6431 176.356Z" fill="white"/>
<path d="M153.565 239.993C146.509 245.947 127.076 249.747 124.216 242.265C121.36 234.782 127.369 230.824 127.369 230.824C126.337 229.378 125.4 227.664 124.56 225.767C130.225 222.476 142.135 217.34 158.546 219.667C158.571 220.41 158.594 221.058 158.618 221.575C158.851 226.865 160.616 234.036 153.565 239.993Z" fill="white"/>
<path d="M234.311 177.459C227.516 185.751 224.988 180.797 213.03 180.319C210.671 162.861 216.134 152.664 219.489 148.062C224.359 151.041 226.556 153.403 226.556 153.403C229.532 146.589 236.508 143.922 241.131 148.544C245.752 153.17 241.442 168.763 234.311 177.459Z" fill="white"/>
<path d="M182.593 94.7055C182.543 94.7722 182.487 94.8398 182.435 94.9065C167.629 91.8256 159.42 79.9809 156.152 74.032C161.406 68.5009 166.93 62.6221 170.137 59.2955C176.328 52.8678 191.684 52.3976 195.366 63.7323C199.052 75.0662 192.703 81.862 182.593 94.7055Z" fill="white"/>
<path d="M82.1173 175.064C81.3152 173.147 80.4599 171.355 79.5684 169.681C85.1762 165.775 92.3739 160.203 96.2965 155.818C96.2965 155.818 97.2666 159.332 97.1712 162.169C92.8712 166.959 87.5909 171.356 82.1173 175.064Z" fill="#121212"/>
<path d="M54.2484 186.665C52.662 186.664 51.3685 186.382 50.4533 185.785C49.1168 184.912 47.9474 183.73 46.9976 182.345C47.7262 182.502 48.5342 182.579 49.4114 182.579C56.3018 182.58 67.4626 177.87 77.7833 170.905C78.3549 170.52 78.9519 170.111 79.5682 169.681C80.4598 171.356 81.3151 173.147 82.1171 175.065C71.712 182.114 60.6145 186.665 54.2484 186.665Z" fill="#8898AE"/>
<path d="M162.476 115.89C160.489 115.151 157.791 115.484 156.152 114.564C156.152 114.564 165.775 104.103 175.139 92.5078C176.942 93.3344 178.876 94.0343 180.945 94.562C172.894 104.721 165.028 113.191 162.476 115.89Z" fill="#121212"/>
<path d="M180.945 94.562C178.876 94.0343 176.942 93.3344 175.139 92.5078C175.956 91.4964 176.77 90.4773 177.577 89.4548C177.628 89.3873 177.683 89.3206 177.735 89.2531C187.586 76.738 193.866 69.9658 190.771 59.141C192.277 60.4446 193.396 62.1408 194.052 64.1596C197.247 73.9898 192.396 80.1101 183.588 91.2203C182.915 92.0688 182.221 92.9435 181.509 93.8486C181.321 94.0875 181.133 94.3256 180.945 94.562Z" fill="#8898AE"/>
<path d="M157.16 219.487C156.078 219.359 155.017 219.264 153.977 219.197C153.895 218.122 153.801 217.091 153.758 216.124C153.735 215.606 153.711 214.958 153.687 214.216C153.565 210.233 153.45 203.438 153.379 198.457C149.948 198.883 146.593 199.119 143.336 199.119C134.25 199.119 125.916 197.286 118.725 192.667C118.683 192.214 118.663 191.957 118.661 191.932C118.633 191.548 118.445 191.193 118.144 190.953C114.182 187.801 110.962 184.106 108.386 180.444C119.19 187.645 130.109 190.788 140.094 190.788C168.889 190.788 189.95 164.679 178.33 134.53C179.688 136.254 180.498 137.393 180.525 137.432C180.745 137.744 181.084 137.951 181.46 138.004C185.648 146.301 189.828 160.146 182.969 175.725C189.432 175.309 198.61 174.828 206.337 174.828C206.974 174.828 207.586 174.84 208.17 174.867C209.79 174.932 211.237 175.079 212.545 175.264C212.61 176.447 212.712 177.667 212.856 178.928C212.321 178.909 211.769 178.899 211.197 178.899C197.74 178.899 179.685 180.378 179.503 180.392C179.109 180.425 178.748 180.625 178.511 180.942C171.158 190.77 157.758 196.343 157.623 196.397C157.098 196.613 156.757 197.127 156.765 197.694C156.766 197.861 156.954 212.567 157.16 219.487Z" fill="#121212"/>
<path d="M133.577 245.029C132.028 245.029 130.595 244.882 129.369 244.566C127.314 244.036 126.016 243.096 125.509 241.77C125.365 241.393 125.246 241.026 125.151 240.669C126.246 240.868 127.442 240.961 128.7 240.961C135.621 240.961 144.431 238.147 148.706 234.541C154.467 229.674 154.342 223.997 153.977 219.197C155.017 219.264 156.078 219.359 157.16 219.487C157.185 220.334 157.21 221.065 157.236 221.639C157.269 222.384 157.33 223.145 157.394 223.95C157.78 228.778 158.218 234.251 152.671 238.935C148.457 242.494 140.004 245.029 133.577 245.029Z" fill="#8898AE"/>
<path d="M226.559 180.844C225.334 180.844 223.957 180.557 222.19 180.188C219.767 179.682 216.821 179.066 212.856 178.928C212.712 177.667 212.61 176.447 212.545 175.264C216.584 175.835 219.298 176.77 221.688 176.77C224.239 176.77 226.42 175.707 229.452 172.007C234.862 165.412 238.648 154.849 238.142 148.112C238.857 148.431 239.531 148.903 240.152 149.524C243.996 153.368 240.251 168.036 233.243 176.584C230.557 179.86 228.821 180.844 226.559 180.844Z" fill="#8898AE"/>
<path d="M98.2804 161.621C98.3859 161.621 98.4923 161.633 98.5978 161.658C99.0909 161.774 99.481 162.151 99.6144 162.64C99.6616 162.813 104.501 180.098 118.143 190.953C118.445 191.193 118.632 191.548 118.661 191.932C118.681 192.204 120.795 219.24 128.493 230.02C128.712 230.326 128.796 230.707 128.728 231.077C128.658 231.446 128.442 231.772 128.128 231.978C127.927 232.114 123.095 235.456 125.508 241.77C126.016 243.096 127.314 244.036 129.369 244.566C135.683 246.192 147.442 243.351 152.67 238.935C158.217 234.251 157.78 228.778 157.394 223.95C157.33 223.145 157.268 222.384 157.235 221.639C157.002 216.388 156.767 197.881 156.764 197.694C156.757 197.127 157.098 196.613 157.623 196.398C157.757 196.343 171.158 190.77 178.51 180.942C178.747 180.625 179.109 180.425 179.503 180.392C179.685 180.378 197.739 178.899 211.196 178.899C216.018 178.899 219.44 179.614 222.19 180.188C227.223 181.238 229.105 181.632 233.243 176.584C240.251 168.036 243.996 153.368 240.152 149.524C238.592 147.964 236.694 147.343 234.665 147.726C231.852 148.258 229.294 150.587 227.822 153.958C227.635 154.384 227.247 154.689 226.787 154.768C226.326 154.845 225.86 154.687 225.543 154.346C225.42 154.215 212.656 140.973 181.523 138.011C181.122 137.973 180.758 137.762 180.525 137.432C180.431 137.3 171.03 124.067 161.936 118.956C161.562 118.746 161.307 118.375 161.245 117.951C161.183 117.526 161.322 117.097 161.619 116.789C161.718 116.688 171.563 106.484 181.508 93.8486C182.221 92.9435 182.915 92.0688 183.588 91.2203C192.396 80.1101 197.247 73.9898 194.052 64.1595C192.774 60.2251 189.737 57.5208 185.5 56.5456C180.379 55.3653 174.338 56.9264 171.132 60.2538C169.122 62.3401 166.146 65.4868 162.995 68.8176C156.212 75.9916 148.523 84.1214 145.229 87.252C140.403 91.8408 83.2459 138.169 80.8143 140.139C80.7974 140.153 80.7797 140.167 80.7611 140.181C80.5399 140.343 58.534 156.455 50.4802 161.988C46.4495 164.757 44.2611 168.94 44.3176 173.766C44.375 178.671 46.7838 183.388 50.4532 185.785C56.9813 190.048 82.7511 178.293 97.2495 162.082C97.5154 161.784 97.8911 161.621 98.2804 161.621ZM133.518 247.782C131.747 247.782 130.101 247.61 128.679 247.244C125.748 246.488 123.759 244.937 122.926 242.757C120.718 236.981 123.236 232.652 125.512 230.538C118.511 219.453 116.3 196.819 115.952 192.739C104.802 183.632 99.4852 170.874 97.6809 165.68C90.9518 172.665 81.5699 179.438 72.1298 184.074C67.0927 186.549 54.7498 191.894 48.941 188.1C44.5203 185.213 41.6201 179.599 41.5525 173.798C41.485 168.021 44.099 163.017 48.914 159.709C56.8057 154.287 78.2071 138.623 79.1003 137.969C80.6353 136.725 138.616 89.7241 143.325 85.2485C146.564 82.1685 154.226 74.0657 160.987 66.9179C164.141 63.582 167.121 60.4311 169.14 58.3355C173.037 54.2897 180.019 52.4449 186.121 53.8506C191.341 55.0521 195.091 58.4098 196.683 63.3051C200.335 74.5461 194.847 81.4686 185.754 92.9384C185.084 93.7844 184.392 94.6566 183.682 95.5591C175.68 105.725 167.741 114.332 164.8 117.457C172.951 122.711 180.631 132.877 182.412 135.32C208.736 137.954 222.043 147.57 226.157 151.137C228.075 147.854 230.967 145.61 234.151 145.008C237.079 144.455 239.904 145.365 242.107 147.568C247.486 152.948 242.827 169.256 235.381 178.337C230.181 184.681 226.776 183.97 221.625 182.895C218.999 182.347 215.733 181.664 211.196 181.664C199.246 181.664 183.606 182.843 180.342 183.1C173.527 191.87 162.697 197.165 159.541 198.58C159.593 202.398 159.797 216.982 159.998 221.515C160.029 222.213 160.088 222.949 160.151 223.729C160.546 228.674 161.088 235.447 154.455 241.048C149.749 245.022 140.627 247.782 133.518 247.782Z" fill="#5F5F5F"/>
<path d="M96.9668 163.434C95.8456 158.929 95.361 154.337 95.1778 149.717C95.117 148.195 95.1178 146.671 95.1372 145.152C95.1406 144.865 95.3762 144.636 95.6624 144.639C95.9351 144.643 96.1563 144.856 96.174 145.123C96.4079 148.109 96.7929 151.082 97.3518 154.021C97.9192 156.908 98.6115 159.838 99.6019 162.593C100.205 164.409 97.5317 165.271 96.9668 163.434Z" fill="#5F5F5F"/>
<path d="M161.897 118.933C157.768 116.351 153.256 114.303 148.76 112.417C147.425 111.858 145.516 111.121 144.148 110.6C143.545 110.361 143.843 109.444 144.478 109.617C147.65 110.511 150.909 111.512 154.003 112.628C156.365 113.478 158.714 114.394 161.006 115.436C161.784 115.79 162.524 116.137 163.33 116.568C164.005 116.929 164.259 117.768 163.898 118.442C163.517 119.166 162.569 119.396 161.897 118.933Z" fill="#5F5F5F"/>
<path d="M178.522 180.927C181.176 177.711 183.093 173.845 184.243 169.834C184.411 169.209 185.352 169.399 185.258 170.043C184.704 173.904 183.456 177.663 181.608 181.105C181.328 181.611 181.067 182.079 180.713 182.614C179.566 184.204 177.275 182.446 178.522 180.927Z" fill="#5F5F5F"/>
<path d="M182.895 136.025C184.343 139.761 185.417 143.591 186.153 147.515C186.263 148.14 185.36 148.379 185.151 147.778C183.896 144.139 182.304 140.571 180.407 137.235C179.49 135.497 182.092 134.226 182.895 136.025Z" fill="#5F5F5F"/>
<path d="M158.469 199.022C154.067 199.689 149.658 199.837 145.232 199.684C144.595 199.655 144.565 198.713 145.202 198.648C147.355 198.444 149.494 198.151 151.61 197.77C153.689 197.389 155.844 196.923 157.845 196.327C159.732 195.835 160.386 198.631 158.469 199.022Z" fill="#5F5F5F"/>
<path d="M227.856 153.873C225.947 158.913 225.269 164.484 225.928 169.843C226.02 170.494 225.061 170.68 224.909 170.033C223.626 164.417 223.761 158.51 225.254 152.935C225.87 151.097 228.555 152.056 227.856 153.873Z" fill="#5F5F5F"/>
<path d="M126.715 229.605C132.351 227.216 138.744 226.906 144.681 228.197C145.312 228.319 145.197 229.265 144.548 229.222C143.098 229.078 141.646 228.952 140.19 229.006C136.297 229.086 132.402 229.93 128.885 231.589C128.603 231.722 128.269 231.894 128.022 232.042C126.344 232.977 125.001 230.492 126.715 229.605Z" fill="#5F5F5F"/>
<path d="M67.348 168.566C69.4782 172.256 69.3971 176.291 67.1673 177.578C64.9375 178.866 60.4079 177.467 58.2777 173.778C56.1475 170.088 57.2232 165.505 59.4538 164.217C61.6836 162.929 65.2179 164.876 67.348 168.566Z" fill="#79BEFD"/>
<path d="M54.183 167.943C54.6887 169.115 53.6165 170.705 51.7885 171.492C49.9606 172.281 48.0694 171.97 47.5637 170.797C47.0579 169.626 48.1302 168.036 49.9581 167.247C51.786 166.459 53.6772 166.77 54.183 167.943Z" fill="#79BEFD"/>
<path d="M61.3524 180.167C61.8582 181.339 60.7859 182.928 58.958 183.717C57.1301 184.505 55.2388 184.194 54.7331 183.021C54.2274 181.849 55.2996 180.26 57.1275 179.472C58.9554 178.683 60.8467 178.994 61.3524 180.167Z" fill="#79BEFD"/>
<path d="M55.337 174.948C55.9516 176.373 54.968 178.168 53.1401 178.956C51.3122 179.745 49.3323 179.229 48.7176 177.803C48.1021 176.377 49.0858 174.582 50.9137 173.794C52.7416 173.006 54.7223 173.522 55.337 174.948Z" fill="#79BEFD"/>
<path d="M173.946 77.1543C171.003 74.0743 170.125 70.1356 171.986 68.3558C173.847 66.5769 178.579 66.8614 181.523 69.9414C184.467 73.0206 184.508 77.7292 182.646 79.5082C180.786 81.288 176.89 80.2334 173.946 77.1543Z" fill="#79BEFD"/>
<path d="M186.884 74.6399C186.115 73.6209 186.781 71.8225 188.37 70.6236C189.958 69.4238 191.87 69.2778 192.639 70.2968C193.408 71.3159 192.743 73.1143 191.154 74.314C189.565 75.5129 187.654 75.659 186.884 74.6399Z" fill="#79BEFD"/>
<path d="M177.022 64.4627C176.253 63.4436 176.917 61.6461 178.506 60.4463C180.096 59.2474 182.007 59.1014 182.776 60.1204C183.545 61.1395 182.88 62.9379 181.291 64.1368C179.702 65.3357 177.791 65.4817 177.022 64.4627Z" fill="#79BEFD"/>
<path d="M184.103 68.1075C183.169 66.8681 183.698 64.8915 185.287 63.6926C186.877 62.4937 188.922 62.5258 189.858 63.7652C190.793 65.0038 190.262 66.9812 188.673 68.1801C187.084 69.379 185.039 69.3469 184.103 68.1075Z" fill="#79BEFD"/>
<path d="M169.588 142.14C190.274 169.37 144.316 201.36 125.649 176.375C125.649 176.375 102.2 144.491 121.71 128.565C144.316 110.11 169.588 142.14 169.588 142.14Z" fill="white"/>
<path d="M79.5411 144.333C79.3013 144.333 79.0607 144.331 78.8218 144.329C80.8895 142.819 82.177 141.876 82.177 141.876C82.177 141.876 82.3518 141.734 82.6845 141.465C94.08 139.315 106.553 133.501 118.792 124.357C128.598 117.644 136.712 109.311 142.258 100.258C143.249 98.6383 144.146 97.0172 144.948 95.3987C145.677 105.219 140.499 115.112 131.889 123.408C128.499 124.189 125.073 125.818 121.71 128.565C119.52 130.352 117.872 132.34 116.67 134.463C105.603 140.538 92.4809 144.333 79.5411 144.333Z" fill="#121212"/>
<path d="M78.8221 144.329C77.6325 144.316 76.4513 144.27 75.2676 144.192C76.3306 143.418 77.2821 142.723 78.0825 142.138C79.5938 141.983 81.1296 141.758 82.6848 141.465C82.3521 141.734 82.1773 141.876 82.1773 141.876C82.1773 141.876 80.8898 142.819 78.8221 144.329Z" fill="#9D9D9D"/>
<path d="M75.2677 144.192C74.5644 144.145 73.8619 144.086 73.1611 144.016L75.5024 142.339C76.3551 142.295 77.2138 142.228 78.0826 142.139C77.2822 142.723 76.3306 143.418 75.2677 144.192Z" fill="#363636"/>
<path d="M116.67 134.463C117.872 132.34 119.52 130.352 121.71 128.565C125.074 125.818 128.499 124.189 131.889 123.408C127.575 127.563 122.396 131.319 116.67 134.463Z" fill="#8898AE"/>
<path d="M79.0594 154.796C80.558 156.456 83.123 158.575 84.663 155.979C85.0775 155.282 85.2928 154.347 85.4828 153.294C85.5081 153.055 85.8535 152.991 85.9641 153.201C88.3923 157.453 83.6237 161.857 79.8572 158.25C78.9791 157.353 78.4886 156.258 78.3223 155.147C78.248 154.741 78.7968 154.487 79.0594 154.796Z" fill="white"/>
<path d="M157.418 96.7217C158.985 97.8581 162.075 99.4446 162.815 96.8787C163.103 95.3404 162.479 93.9068 161.956 92.2967C161.869 92.0705 162.159 91.8602 162.348 92.008C163.365 92.7442 164.228 93.7371 164.728 95.0289C165.726 97.349 164.485 100.305 161.752 100.497C159.548 100.707 157.546 99.0528 156.78 97.23C156.6 96.8399 157.084 96.4608 157.418 96.7217Z" fill="white"/>
<path d="M199.118 155.374C199.955 156.581 200.738 157.758 201.672 158.672C203.573 160.581 205.369 160.74 205.64 157.668C205.75 156.385 205.547 154.975 205.33 153.502C205.277 153.25 205.634 153.098 205.779 153.307C207.452 155.471 208.634 159.255 206.381 161.547C204.369 163.468 201.389 161.958 200.089 160.005C199.15 158.705 198.599 157.219 198.356 155.666C198.285 155.23 198.885 155.005 199.118 155.374Z" fill="white"/>
<path d="M125.789 206.746C126.387 207.791 127.026 208.862 127.973 209.525C129.754 210.806 131.552 209.698 131.638 207.548C131.701 206.451 131.385 205.219 130.988 203.925C130.898 203.689 131.214 203.481 131.395 203.653C133.844 205.627 134.785 210.083 131.543 211.925C129.949 212.863 127.775 212.361 126.598 211.071C125.448 209.869 125.023 208.353 124.997 206.944C124.984 206.506 125.597 206.359 125.789 206.746Z" fill="white"/>
<path d="M33.0825 91.8494C33.7739 94.9032 34.6983 98.0238 35.8756 101.212V101.216C15.7472 90.3474 4.81185 81.4315 2.07403 74.2448C-1.84099 63.9891 10.9551 57.2735 37.5309 53.4809C31.8183 63.9494 29.7166 77.0614 33.0825 91.8494Z" fill="#2C2C2C"/>
<path d="M34.0631 100.229C15.0897 89.8069 4.72862 81.2119 2.07422 74.2448C7.41544 79.6551 18.2321 88.95 31.6181 91.5893C32.2429 94.4464 33.0588 97.3305 34.0631 100.229Z" fill="#121212"/>
<path d="M1.90803 73.7905C0.193679 68.6977 2.67432 64.4931 8.98109 61.0998C2.67686 64.4922 0.196379 68.6943 1.90879 73.7846C1.90854 73.7872 1.90829 73.7888 1.90803 73.7905ZM8.99054 61.0948C8.99282 61.0939 8.99502 61.0922 8.99722 61.0914C8.99494 61.0922 8.99291 61.0939 8.99054 61.0948Z" fill="#DFDFDF"/>
<path d="M1.90906 73.7847C0.196644 68.6944 2.67712 64.4923 8.98136 61.0999C8.9844 61.0982 8.98777 61.0965 8.99081 61.0948C8.99317 61.094 8.9952 61.0923 8.99748 61.0914C9.0028 61.0881 9.00778 61.0855 9.0131 61.083C9.01386 61.0821 9.01496 61.0821 9.01572 61.0813C14.8251 57.965 23.8634 55.5342 35.8503 53.7274C35.1078 55.1543 34.433 56.62 33.8286 58.1195C13.9333 61.3768 2.80309 66.4941 1.90906 73.7847Z" fill="#D2D2D2"/>
<path d="M116.777 37.998C113.296 35.7066 109.745 33.8103 106.166 32.2931L106.157 32.2855C104.506 31.5864 102.842 30.9616 101.183 30.4247C95.2927 28.4929 89.3793 27.5447 83.6194 27.4814C77.12 27.4063 70.8147 28.4608 64.9722 30.5074C67.0188 23.6846 68.9345 17.7905 70.9811 13.1604C79.0323 -5.07572 89.055 -3.66911 116.777 37.998Z" fill="#2C2C2C"/>
<path d="M67.0649 28.3628C68.3491 24.1675 69.6553 20.1562 71.0424 16.6236C71.2696 16.112 71.4992 15.6155 71.7306 15.1351C73.2461 18.7192 75.6844 22.3826 79.5994 25.1823C79.607 25.5099 79.6163 25.8434 79.6282 26.1828C75.3323 26.4319 71.1184 27.1647 67.0649 28.3628Z" fill="#121212"/>
<path d="M112.149 33.616C111.724 33.388 111.296 33.1634 110.868 32.9456C97.2913 13.6482 88.519 5.61215 82.0914 5.61215C77.8572 5.61215 74.6404 9.09323 71.7309 15.1351C71.7157 15.1004 71.7014 15.0658 71.687 15.0312C74.3922 8.56469 77.4266 4.01812 81.2031 3.45582C81.497 3.41191 81.7967 3.39081 82.104 3.39081C88.4988 3.39081 97.911 12.8495 112.149 33.616Z" fill="#D2D2D2"/>
<path d="M71.0425 16.6238C71.2552 16.0817 71.4697 15.5507 71.6867 15.0314C71.701 15.066 71.7154 15.1007 71.7306 15.1353C71.4992 15.6157 71.2696 16.1121 71.0425 16.6238Z" fill="#D3D3D3"/>
<path d="M33.1322 64.6348C4.50711 68.0669 3.32256 76.1596 32.5743 89.4219L33.1322 64.6348Z" fill="#79BEFD"/>
<path d="M15.597 79.8982C12.9766 77.8077 11.5217 75.9156 11.209 74.2169C11.5218 75.9139 12.9768 77.806 15.5956 79.8948C15.5961 79.8957 15.5966 79.8973 15.597 79.8982ZM14.4011 69.2482C14.4037 69.2465 14.4059 69.2456 14.4085 69.2439C14.4058 69.2456 14.4039 69.2465 14.4011 69.2482ZM14.4119 69.2423C17.7092 67.3502 23.4835 65.8802 31.6589 64.8173C31.6587 64.8181 31.6587 64.8181 31.6585 64.819C23.4839 65.8811 17.7088 67.351 14.4119 69.2423Z" fill="#121212"/>
<path d="M15.596 79.8948C12.9771 77.806 11.5221 75.9139 11.2093 74.2168C10.86 72.3205 11.9354 70.6666 14.4014 69.2481C14.4042 69.2464 14.4061 69.2456 14.4088 69.2439C14.4103 69.2431 14.4107 69.2431 14.4123 69.2422C17.7091 67.351 23.4842 65.8811 31.6588 64.8189C31.505 65.4378 31.3625 66.06 31.2313 66.6874C30.8853 68.3413 30.6185 70.0181 30.4303 71.716C18.9337 72.551 13.8772 75.2452 15.596 79.8948Z" fill="#5D8CE8"/>
<path d="M80.8675 27.5169C79.7471 3.3682 87.4666 7.57704 104.983 31.8018L80.8675 27.5169Z" fill="#79BEFD"/>
<path d="M101.499 29.0586C100.426 28.7107 99.3471 28.3924 98.2605 28.1045C92.5395 21.047 88.3036 17.2637 85.498 17.2637C83.8119 17.2637 82.6417 18.6289 81.9756 21.4692C82.1799 14.6109 83.5299 12.9645 84.4384 12.6471C84.614 12.5854 84.8048 12.555 85.0109 12.555C87.7835 12.555 93.3162 18.0936 101.499 29.0586Z" fill="#5D8CE8"/>
<path d="M148.469 75.7425C148.749 91.3671 137.15 110.124 117.989 123.233C80.7665 151.053 45.5228 145.431 40.7668 112.107C38.8114 108.406 37.1874 104.771 35.8758 101.216V101.212C32.7903 92.8447 31.4194 84.9074 31.4748 77.5636C31.5379 68.56 33.7345 60.4378 37.5311 53.4808C43.4686 42.6045 53.3055 34.5844 64.9721 30.5073C80.6204 25.032 99.5556 26.6556 116.777 37.9979C122.351 41.6681 127.751 46.3616 132.797 52.1645C143.431 57.3325 148.299 65.9207 148.469 75.7425Z" fill="#2C2C2C"/>
<path d="M71.1886 138.874C67.2761 138.874 63.6051 138.354 60.2347 137.327C60.1055 137.275 59.9771 137.223 59.8488 137.17C50.038 133.097 43.9118 124.363 42.1337 111.913C42.1109 111.756 42.0619 111.603 41.9868 111.463C34.721 97.7071 32.2453 85.338 32.9294 74.6585C33.5001 79.9953 34.7784 85.5922 36.8594 91.3984V91.4026C38.1317 94.958 41.0276 103.176 44.5551 107.758C45.7084 116.086 48.5293 122.344 52.6773 126.607C57.2205 131.283 63.3586 133.57 70.639 133.57C83.2951 133.57 99.4086 126.667 116.631 113.42C133.845 101.294 144.775 84.3417 146.106 69.5015C146.123 69.5378 146.139 69.5732 146.156 69.6087C148.73 85.9273 136.836 106.835 116.018 121.08C99.9413 133.095 84.2306 138.874 71.1886 138.874Z" fill="#121212"/>
<path d="M146.426 70.2224C146.339 70.0172 146.249 69.8121 146.156 69.6086C146.143 69.5309 146.13 69.4516 146.118 69.3739C146.113 69.4161 146.11 69.4592 146.106 69.5014C143.677 64.2591 139.323 59.7987 132.796 56.6291C127.751 50.8254 122.351 46.1319 116.776 42.4618C105.782 35.221 94.0867 31.9401 82.9959 31.9401C76.7152 31.9401 70.6294 32.9921 64.9718 34.972C53.3052 39.0491 43.4682 47.0683 37.5308 57.9446C36.498 59.8358 35.5833 61.814 34.7979 63.8733C38.1652 52.2548 45.4439 43.3677 53.583 37.7885C61.6798 32.2381 72.0386 28.8229 83.2307 28.8229C93.7211 28.8229 104.941 31.8236 115.712 38.8819C115.889 39.0964 116.121 39.2458 116.374 39.3218C121.662 42.8763 126.836 47.4178 131.754 53.0713C131.877 53.2114 132.025 53.3262 132.193 53.4073C139.877 57.1425 144.736 62.9082 146.426 70.2224Z" fill="#D2D2D2"/>
<path d="M146.156 69.6086C146.139 69.5732 146.123 69.5377 146.106 69.5014C146.11 69.4592 146.114 69.4162 146.118 69.3739C146.13 69.4516 146.143 69.531 146.156 69.6086Z" fill="#D3D3D3"/>
<path d="M121.758 82.4825C129.526 91.2556 124.985 103.074 114.158 112.661C103.331 122.248 90.3164 125.972 82.5489 117.199C74.7804 108.425 74.2891 91.0935 85.1164 81.5065C95.9437 71.9194 113.99 73.7093 121.758 82.4825Z" fill="white"/>
<path d="M83.2309 28.823C72.0388 28.823 61.6801 32.2382 53.5833 37.7886C36.4757 49.516 23.174 75.8481 41.9868 111.463C42.0619 111.603 42.1109 111.756 42.1337 111.913C43.9118 124.363 50.038 133.097 59.8488 137.17C63.8601 138.835 68.3374 139.65 73.1407 139.651C86.2653 139.652 101.847 133.571 117.16 122.125C117.175 122.113 117.191 122.102 117.207 122.091C136.197 109.1 148.176 89.8415 147.018 74.1679C146.337 64.9701 141.212 57.791 132.194 53.4073C132.026 53.3263 131.877 53.2115 131.755 53.0713C116.636 35.6897 99.097 28.823 83.2309 28.823ZM73.0934 142.402C67.9355 142.402 63.1188 141.522 58.7892 139.725C48.243 135.346 41.3755 125.698 39.4302 112.543C31.1062 96.6913 28.2706 80.8387 31.2311 66.6874C33.8972 53.9426 41.2801 42.8696 52.0196 35.5073C63.3856 27.7152 77.4846 24.6048 91.7162 26.7477C107.298 29.094 121.795 37.4939 133.657 51.045C143.453 55.8955 149.026 63.8151 149.775 73.9644C150.381 82.1474 147.781 91.2397 142.258 100.258C136.712 109.311 128.599 117.644 118.792 124.357C103.011 136.146 86.8428 142.401 73.0934 142.402Z" fill="#5F5F5F"/>
<path d="M35.8756 102.6C35.6538 102.6 35.429 102.547 35.2199 102.434C10.0426 88.8411 -1.43141 77.9471 0.142196 69.13C1.58511 61.0458 13.7527 55.4794 37.3401 52.1114C38.0962 52.0034 38.7961 52.5294 38.9042 53.285C39.0123 54.0407 38.4871 54.7414 37.7309 54.8495C10.3955 58.7519 3.68244 65.0335 2.86473 69.6164C1.9582 74.6957 7.06361 84.0902 36.5338 100C37.2058 100.363 37.4564 101.203 37.0936 101.875C36.8436 102.337 36.3674 102.6 35.8756 102.6Z" fill="#5F5F5F"/>
<path d="M116.777 39.3818C116.329 39.3818 115.89 39.1649 115.624 38.7647C98.6983 13.3225 88.088 2.43603 81.2027 3.45594C74.7548 4.41507 70.4725 16.9867 66.2957 30.9034C66.0762 31.6354 65.3053 32.0508 64.5742 31.8304C63.8422 31.6109 63.4276 30.84 63.6471 30.1089C68.4234 14.1929 72.7192 1.92269 80.7958 0.720405C89.0919 -0.509743 99.8525 10.0634 117.926 37.2331C118.349 37.8688 118.176 38.7267 117.541 39.1497C117.305 39.3067 117.039 39.3818 116.777 39.3818Z" fill="#5F5F5F"/>
<path d="M32.5737 90.6074C32.41 90.6074 32.2436 90.5736 32.0849 90.5019C16.2711 83.3321 9.25785 77.7132 10.0135 72.818C10.7222 68.2275 18.0235 65.253 32.9913 63.458C33.6414 63.3804 34.2314 63.8439 34.3091 64.494C34.387 65.1441 33.9232 65.7343 33.2733 65.812C15.7387 67.9143 12.6416 71.3303 12.3562 73.1793C12.0449 75.1955 14.3214 79.8451 33.0636 88.3422C33.6597 88.6132 33.924 89.3156 33.6538 89.9117C33.4555 90.3491 33.0244 90.6074 32.5737 90.6074Z" fill="#5F5F5F"/>
<path d="M104.984 32.9871C104.616 32.9871 104.254 32.8174 104.022 32.4965C93.7988 18.357 87.2107 11.6786 84.438 12.647C83.3084 13.0421 81.4965 15.4914 82.052 27.462C82.0816 28.1163 81.5767 28.6701 80.9224 28.7014C80.2731 28.7335 79.7142 28.2261 79.6838 27.5717C79.1856 16.8364 80.4107 11.5435 83.6562 10.4096C87.86 8.93798 94.1104 14.7425 105.943 31.1076C106.327 31.6379 106.208 32.3792 105.677 32.7625C105.467 32.9145 105.225 32.9871 104.984 32.9871Z" fill="#5F5F5F"/>
<path d="M65.3477 100.11C61.2107 102.5 55.2693 99.9479 52.0736 94.4126C51.7452 93.8444 51.4607 93.2669 51.2158 92.6869C54.8311 87.6886 57.7186 82.8254 59.5558 79.5115C62.3885 80.3246 65.1856 82.5333 67.0499 85.7653C70.2464 91.2997 69.484 97.7231 65.3477 100.11Z" fill="#5F5F5F"/>
<path d="M48.5628 95.3186C50.292 91.656 52.4154 88.3303 54.532 84.9168C56.7171 81.5565 58.8574 78.1539 61.5094 75.1178C61.7179 74.8434 62.1873 75.068 62.097 75.4024C60.6034 81.3597 57.4854 86.7937 53.6911 91.5775C52.4112 93.1622 50.9843 94.644 49.4206 95.9881C48.9765 96.3799 48.2867 95.8454 48.5628 95.3186Z" fill="#5F5F5F"/>
<path d="M60.9407 88.3809C61.8087 89.8846 61.5444 91.6627 60.3497 92.3525C59.155 93.0423 57.4833 92.3821 56.6145 90.8784C55.7466 89.3747 56.0108 87.5966 57.2055 86.9068C58.4002 86.217 60.0728 86.8772 60.9407 88.3809Z" fill="white"/>
<path d="M109.121 69.3267C105.07 71.6654 99.4296 69.4685 96.5176 64.428C94.7598 61.3818 94.4001 57.9962 95.285 55.2783C98.2873 54.5472 102.084 53.3027 106.244 51.1733C108.164 52.1527 109.922 53.7924 111.175 55.9656C114.086 61.0061 113.166 66.9914 109.121 69.3267Z" fill="#5F5F5F"/>
<path d="M106.011 57.4676C106.879 58.9713 106.615 60.7502 105.42 61.44C104.225 62.129 102.553 61.4696 101.685 59.9659C100.816 58.4613 101.081 56.6832 102.276 55.9935C103.47 55.3037 105.142 55.9639 106.011 57.4676Z" fill="white"/>
<path d="M109.115 50.221C105.027 53.9993 99.6156 56.2367 94.1082 56.8674C92.2575 57.048 90.384 57.0683 88.5131 56.6318C88.3324 56.5896 88.2201 56.4089 88.2623 56.2282C88.2927 56.1016 88.3889 56.0113 88.5071 55.9792L93.5831 54.3362C96.9189 53.2614 100.185 52.1519 103.487 50.9725C104.992 50.4667 107.022 49.6663 108.565 49.2813C109.117 49.1006 109.545 49.8318 109.115 50.221Z" fill="#5F5F5F"/>
<path d="M84.0653 88.196C86.1254 85.1557 88.9032 82.866 92.6156 81.5539C93.6017 81.2052 94.6478 81.8908 94.7517 82.9318C94.9408 84.8188 94.8471 87.7021 93.0209 89.715C92.8604 89.8923 92.6544 90.0214 92.4315 90.1093C91.4285 90.5044 88.4346 91.4838 85.0422 90.669C83.948 90.4064 83.4338 89.1282 84.0653 88.196Z" fill="#5F5F5F"/>
<path d="M91.7674 84.0218C92.1845 84.5951 91.4626 85.8312 90.1548 86.7818C88.8469 87.7325 87.4488 88.039 87.0325 87.4657C86.6155 86.8924 87.6919 85.897 88.9989 84.9463C90.3067 83.9957 91.3511 83.4494 91.7674 84.0218Z" fill="white"/>
<path d="M94.4729 93.0515L94.2931 92.9569L91.3203 89.7604L93.0554 88.1453L95.7563 91.0488L95.9142 91.1316L96.1041 91.4929L95.0445 92.0223L94.4729 93.0515Z" fill="#5F5F5F"/>
<path d="M94.5267 91.466C94.5697 91.5166 94.6136 91.5647 94.6524 91.612C95.6521 92.7856 95.7391 93.9626 94.9252 95.1395C94.9176 95.1513 94.91 95.1598 94.9015 95.1716C92.0571 99.2918 92.8431 105.372 95.3794 108.295C96.0751 109.098 96.889 109.615 97.7899 109.884C100.661 110.745 104.399 109.077 107.856 106.083C111.826 102.646 114.114 98.5927 112.679 95.381C112.478 94.9183 112.194 94.4725 111.826 94.0453C110.203 92.1769 107.015 90.9957 103.724 90.9957C101.863 90.9957 99.9665 91.3706 98.3032 92.2165C96.4896 93.1208 95.6876 92.7772 94.6524 91.612" fill="#5F5F5F"/>
<path d="M107.856 106.083C104.399 109.077 100.661 110.745 97.7899 109.884C96.6914 106.956 97.9435 102.63 101.167 99.1457C104.794 95.2189 109.677 93.7017 112.679 95.381C114.114 98.5927 111.826 102.646 107.856 106.083Z" fill="#79BEFD"/>
<path d="M95.8609 95.8691C93.4141 99.4607 94.06 104.966 96.2754 107.519C96.8073 108.133 97.4135 108.534 98.1287 108.748C100.381 109.424 103.727 108.092 107.08 105.187C111 101.794 112.689 98.3083 111.598 95.864C111.439 95.5001 111.215 95.1523 110.928 94.8188C109.559 93.2424 106.662 92.1812 103.724 92.1812C101.935 92.1812 100.246 92.5586 98.8404 93.2728C97.9885 93.6975 97.2708 93.8942 96.6444 93.912C96.576 94.5536 96.3294 95.1936 95.9005 95.8142L95.8609 95.8691ZM99.4154 111.298C98.7298 111.298 98.0729 111.206 97.4498 111.018C96.3075 110.678 95.3087 110.023 94.4846 109.071C91.6292 105.78 90.7233 99.1391 93.9266 94.4979L93.9662 94.443C94.3808 93.8233 94.4846 93.2416 93.7509 92.3804L93.6226 92.2318L95.4311 90.6994L95.5392 90.8252C96.2045 91.5741 96.4282 91.8274 97.774 91.1553C99.5032 90.2773 101.563 89.8104 103.724 89.8104C107.42 89.8104 110.867 91.1351 112.721 93.2678C113.167 93.7853 113.517 94.3358 113.766 94.9074C115.325 98.3994 113.455 102.803 108.632 106.979C105.36 109.813 102.163 111.298 99.4154 111.298Z" fill="#5F5F5F"/>
<path d="M42.132 69.19C47.8201 75.0157 49.7029 70.5595 46.6904 64.7937C46.5705 64.57 46.8635 64.3235 47.0627 64.4763C49.6235 66.1961 51.6524 70.2234 49.344 73.0324C48.0531 74.6197 45.5312 74.4846 44.079 73.3415C42.7239 72.3528 41.9159 71.007 41.4355 69.6164C41.286 69.2001 41.8348 68.87 42.132 69.19Z" fill="white"/>
<path d="M66.3979 48.6271C67.7834 49.9475 70.5139 51.0755 71.5355 48.9825C71.8462 48.2412 71.8056 47.3488 71.8065 46.4834C71.8023 46.2571 72.1037 46.1414 72.254 46.3061C72.975 47.0415 73.5145 48.0664 73.4427 49.3337C73.2528 52.2998 69.6324 53.2901 67.4761 51.74C66.4899 51.0789 65.8415 50.0531 65.6726 49.0011C65.5958 48.6026 66.1218 48.3391 66.3979 48.6271Z" fill="white"/>
<path d="M58.0859 119.296C58.7605 120.589 59.4925 121.87 60.5631 122.803C61.5391 123.679 62.7625 124.1 63.7579 123.855C65.5943 123.489 65.7598 121.125 65.2675 119.471C65.1096 118.748 64.7989 118.045 64.5381 117.289C64.446 117.054 64.7643 116.847 64.9416 117.021C67.3015 118.941 68.7992 123.257 65.7733 125.493C63.6456 127.053 60.5842 126.148 59.0712 124.237C57.9035 122.831 57.3792 121.131 57.2948 119.497C57.2678 119.048 57.8993 118.894 58.0859 119.296Z" fill="white"/>
<path d="M106.157 32.2856C106.132 32.2747 106.105 32.2637 106.079 32.2527C106.082 32.2468 106.084 32.2409 106.086 32.235C106.11 32.2519 106.133 32.2688 106.157 32.2856ZM102.956 31.031C102.365 30.8183 101.774 30.6165 101.183 30.4248C101.745 30.5202 102.271 30.635 102.763 30.7667C102.827 30.8537 102.892 30.9432 102.956 31.031Z" fill="#5F5F5F"/>
<path d="M106.08 32.2527C105.042 31.8145 104 31.4067 102.957 31.031C102.892 30.9432 102.827 30.8537 102.763 30.7667C104.126 31.1323 105.225 31.6321 106.086 32.235C106.085 32.2409 106.082 32.2468 106.08 32.2527Z" fill="#5F5F5F"/>
<path d="M95.5923 40.5976C95.6429 40.4912 95.6277 40.3156 95.7451 40.237C95.8371 40.1763 95.8616 40.1898 95.9182 40.1661C95.9764 40.1492 96.1478 40.0901 96.2103 40.0741C97.1002 39.8039 98.0695 39.5743 98.9805 39.3936C101.239 39.017 103.98 38.4058 105.833 40.1855C108.309 42.4086 107.14 46.2941 103.747 46.5904C101.8 46.6487 100.397 44.8537 99.3781 43.507C98.4308 42.412 97.1306 41.5533 95.8853 40.8061C95.7873 40.7411 95.6657 40.709 95.5923 40.5976ZM96.1411 40.5976C96.2196 40.4219 96.2432 40.2092 96.0322 40.1028C96.0423 40.1062 96.0828 40.1222 96.093 40.1256C96.5658 40.3054 97.0597 40.5097 97.5131 40.7318C98.5262 41.2316 99.4997 41.7728 100.359 42.5454C101.352 43.4749 102.284 44.7625 103.66 44.7473C106.094 44.1048 105.378 41.3667 103.234 40.7529C101.895 40.4405 100.474 40.5646 99.0978 40.5452C98.1378 40.5469 97.1044 40.584 96.1411 40.5976Z" fill="white"/>
<path d="M124.2 254C87.7005 254 58.1128 249.431 58.1128 243.796C58.1128 238.211 87.172 233.673 123.219 233.592C122.043 235.908 121.501 239.031 122.926 242.757C123.759 244.937 125.748 246.488 128.68 247.244C130.101 247.61 131.747 247.782 133.518 247.782C140.627 247.782 149.749 245.022 154.455 241.048C156.684 239.166 158.103 237.151 158.989 235.118C177.776 236.918 190.286 240.131 190.286 243.796C190.286 249.431 160.698 254 124.2 254Z" fill="#292929"/>
<path d="M249.592 95.1041C249.28 100.433 244.891 103.567 235.097 102.381C229.645 101.722 224.297 103.448 220.54 107.889C217.541 111.432 215.557 116.702 215.348 123.864C214.878 140.003 210.256 145.139 210.256 145.139L188.942 140.24C194.351 136.559 196.544 125.666 197.716 113.929C198.305 108.054 200.269 100.358 204.717 93.9821C209.153 87.6177 216.067 82.5654 226.556 81.9406C247.554 80.6885 249.904 89.7749 249.592 95.1041Z" fill="#2C2C2C"/>
<path d="M195.663 137.406C194.99 137.257 194.302 137.113 193.604 136.975C196.253 132.371 198.003 124.969 199.095 114.068C199.377 111.255 200.697 101.965 206.229 94.3145C206.866 94.48 207.543 94.6885 208.244 94.9503C208.002 95.2703 207.767 95.5945 207.539 95.9221C203.091 102.298 201.128 109.994 200.538 115.869C199.701 124.252 198.342 132.205 195.663 137.406Z" fill="#D2D2D2"/>
<path d="M249.592 95.104C249.28 100.433 244.891 103.566 235.097 102.381C229.645 101.722 224.297 103.448 220.54 107.888C216.7 97.6639 209.15 94.784 204.717 93.9819C209.153 87.6176 216.067 82.5653 226.556 81.9405C247.554 80.6884 249.904 89.7748 249.592 95.104Z" fill="white"/>
<path d="M210.524 141.985C209.356 141.505 208.123 141.032 206.823 140.571C208.126 138.439 210.878 132.528 211.236 120.269C211.445 113.107 213.428 107.837 216.427 104.294C216.905 103.729 217.409 103.207 217.936 102.729C218.667 103.832 219.348 105.068 219.956 106.455C216.243 110.504 214.182 116.457 213.967 123.822C213.682 133.608 211.829 139.21 210.524 141.985Z" fill="#121212"/>
<path d="M219.956 106.455C219.348 105.068 218.667 103.832 217.936 102.729C220.981 99.9664 224.785 98.6501 228.755 98.6501C229.494 98.6501 230.238 98.6957 230.985 98.786C232.377 98.9549 233.662 99.0359 234.839 99.0359C241.945 99.0359 245.212 96.0809 245.48 91.509C245.561 90.1387 245.465 88.5218 244.923 86.8957C245.166 87.0967 245.395 87.3044 245.611 87.5214C247.518 89.4261 248.393 91.9506 248.213 95.0238C248.105 96.8517 247.438 98.2896 246.23 99.2985C244.685 100.588 242.196 101.245 238.93 101.245C237.798 101.245 236.573 101.166 235.263 101.007C234.459 100.909 233.663 100.861 232.876 100.861C228.59 100.861 224.603 102.292 221.461 104.996C220.933 105.45 220.431 105.937 219.956 106.455Z" fill="#8898AE"/>
<path d="M210.256 146.52C209.926 146.52 209.595 146.403 209.331 146.165C208.766 145.656 208.718 144.789 209.221 144.221C209.303 144.124 213.525 139.013 213.967 123.822C214.209 115.516 216.8 109.006 221.461 104.996C225.181 101.796 230.082 100.379 235.263 101.007C240.358 101.625 244.151 101.034 246.23 99.2986C247.438 98.2896 248.105 96.8518 248.213 95.0239C248.393 91.9506 247.518 89.4261 245.611 87.5214C242.27 84.1822 235.887 82.768 226.637 83.321C203.213 84.7192 199.584 109.179 199.095 114.068C197.539 129.602 194.648 138.027 189.721 141.383C189.09 141.813 188.229 141.65 187.8 141.018C187.37 140.387 187.533 139.527 188.164 139.097C193.594 135.398 195.432 122.884 196.343 113.793C197.874 98.5049 206.593 81.7472 226.473 80.5601C236.546 79.959 243.641 81.6425 247.566 85.5651C250.021 88.0178 251.199 91.3444 250.973 95.186C250.819 97.8058 249.819 99.9039 248.003 101.421C245.285 103.691 240.888 104.475 234.929 103.752C230.531 103.219 226.388 104.405 223.264 107.092C219.209 110.581 216.95 116.395 216.731 123.903C216.253 140.363 211.486 145.837 211.284 146.063C211.011 146.366 210.634 146.52 210.256 146.52Z" fill="black"/>
<path d="M202.454 110.166C203.378 111.24 205.967 114.373 207.191 112.427C208.136 110.17 206.642 107.839 205.502 105.762C205.429 105.64 205.469 105.48 205.592 105.41C205.673 105.365 205.767 105.367 205.842 105.41C207.849 106.552 209.453 108.517 209.742 110.895C210.19 114.252 206.962 116.731 204.058 114.46C202.786 113.433 202.089 112.032 201.72 110.525C201.612 110.097 202.186 109.823 202.454 110.166Z" fill="white"/>
<path d="M234.311 177.459C227.516 185.751 224.987 180.797 213.03 180.319C212.444 180.292 211.832 180.28 211.197 180.28C197.641 180.28 179.619 181.769 179.619 181.769C171.939 192.037 158.147 197.678 158.147 197.678C158.147 197.678 158.337 212.821 158.546 219.667C158.57 220.41 158.594 221.058 158.618 221.575C158.851 226.865 160.616 234.036 153.565 239.993C146.509 245.947 127.075 249.747 124.216 242.265C121.359 234.782 127.368 230.824 127.368 230.824C126.337 229.378 125.4 227.664 124.559 225.767C118.854 212.955 117.282 192.037 117.282 192.037C103.103 180.753 98.2796 163.004 98.2796 163.004C93.9256 167.871 88.4148 172.465 82.6431 176.356C69.5151 185.214 55.0319 190.425 49.6985 186.941C42.0187 181.927 39.4309 167.902 49.6985 160.847C52.8595 158.673 58.133 154.901 63.3998 151.097C71.6799 145.119 79.9447 139.063 79.9447 139.063C79.9447 139.063 139.437 90.853 144.276 86.2507C146.612 84.0302 151.265 79.1789 156.152 74.032C161.406 68.501 166.93 62.6221 170.137 59.2955C176.328 52.8679 191.684 52.3976 195.366 63.7323C199.052 75.0663 192.703 81.862 182.593 94.7056C182.543 94.7723 182.487 94.8398 182.435 94.9065C172.385 107.651 162.611 117.749 162.611 117.749C172.093 123.078 181.654 136.637 181.654 136.637C200.455 138.423 212.626 143.859 219.488 148.062C224.359 151.041 226.556 153.403 226.556 153.403C229.531 146.589 236.508 143.922 241.13 148.544C245.752 153.17 241.442 168.764 234.311 177.459Z" fill="#2C2C2C"/>
<path d="M217.839 150.571C198.351 141.039 183.653 140.671 183.653 140.671L181.941 138.052C200.131 139.845 211.989 145.148 218.683 149.222C218.408 149.638 218.125 150.088 217.839 150.571Z" fill="#D2D2D2"/>
<path d="M66.4029 153.352C65.7807 152.842 65.1745 152.374 64.5894 151.942C68.4605 149.146 72.3012 146.354 75.2672 144.192C76.451 144.27 77.6321 144.316 78.8218 144.328C75.8135 146.525 71.1538 149.919 66.4029 153.352ZM148.109 87.4968C148.533 86.0978 148.881 84.7081 149.153 83.3327C151.372 81.0582 154.063 78.2408 156.867 75.2882C157.221 75.8877 157.615 76.5268 158.051 77.1947C154.23 81.2186 150.581 85.0273 148.109 87.4968Z" fill="#D2D2D2"/>
<path d="M82.6431 176.356C69.5151 185.214 55.0319 190.425 49.6985 186.94C42.0187 181.927 39.4309 167.902 49.6985 160.846C52.8595 158.673 58.133 154.901 63.3998 151.096C69.0212 154.952 77.1949 162.557 82.6431 176.356Z" fill="white"/>
<path d="M153.565 239.993C146.509 245.947 127.076 249.747 124.216 242.265C121.36 234.782 127.369 230.824 127.369 230.824C126.337 229.378 125.4 227.664 124.56 225.767C130.225 222.476 142.135 217.34 158.546 219.667C158.571 220.41 158.594 221.058 158.618 221.575C158.851 226.865 160.616 234.036 153.565 239.993Z" fill="white"/>
<path d="M234.311 177.459C227.516 185.751 224.988 180.797 213.03 180.319C210.671 162.861 216.134 152.664 219.489 148.062C224.359 151.041 226.556 153.403 226.556 153.403C229.532 146.589 236.508 143.922 241.131 148.544C245.752 153.17 241.442 168.763 234.311 177.459Z" fill="white"/>
<path d="M182.593 94.7055C182.543 94.7722 182.487 94.8398 182.435 94.9065C167.629 91.8256 159.42 79.9809 156.152 74.032C161.406 68.5009 166.93 62.6221 170.137 59.2955C176.328 52.8678 191.684 52.3976 195.366 63.7323C199.052 75.0662 192.703 81.862 182.593 94.7055Z" fill="white"/>
<path d="M82.1173 175.064C81.3152 173.147 80.4599 171.355 79.5684 169.681C85.1762 165.775 92.3739 160.203 96.2965 155.818C96.2965 155.818 97.2666 159.332 97.1712 162.169C92.8712 166.959 87.5909 171.356 82.1173 175.064Z" fill="#121212"/>
<path d="M54.2484 186.665C52.662 186.664 51.3685 186.382 50.4533 185.785C49.1168 184.912 47.9474 183.73 46.9976 182.345C47.7262 182.502 48.5342 182.579 49.4114 182.579C56.3018 182.58 67.4626 177.87 77.7833 170.905C78.3549 170.52 78.9519 170.111 79.5682 169.681C80.4598 171.356 81.3151 173.147 82.1171 175.065C71.712 182.114 60.6145 186.665 54.2484 186.665Z" fill="#8898AE"/>
<path d="M162.476 115.89C160.489 115.151 157.791 115.484 156.152 114.564C156.152 114.564 165.775 104.103 175.139 92.5078C176.942 93.3344 178.876 94.0343 180.945 94.562C172.894 104.721 165.028 113.191 162.476 115.89Z" fill="#121212"/>
<path d="M180.945 94.562C178.876 94.0343 176.942 93.3344 175.139 92.5078C175.956 91.4964 176.77 90.4773 177.577 89.4548C177.628 89.3873 177.683 89.3206 177.735 89.2531C187.586 76.738 193.866 69.9658 190.771 59.141C192.277 60.4446 193.396 62.1408 194.052 64.1596C197.247 73.9898 192.396 80.1101 183.588 91.2203C182.915 92.0688 182.221 92.9435 181.509 93.8486C181.321 94.0875 181.133 94.3256 180.945 94.562Z" fill="#8898AE"/>
<path d="M157.16 219.487C156.078 219.359 155.017 219.264 153.977 219.197C153.895 218.122 153.801 217.091 153.758 216.124C153.735 215.606 153.711 214.958 153.687 214.216C153.565 210.233 153.45 203.438 153.379 198.457C149.948 198.883 146.593 199.119 143.336 199.119C134.25 199.119 125.916 197.286 118.725 192.667C118.683 192.214 118.663 191.957 118.661 191.932C118.633 191.548 118.445 191.193 118.144 190.953C114.182 187.801 110.962 184.106 108.386 180.444C119.19 187.645 130.109 190.788 140.094 190.788C168.889 190.788 189.95 164.679 178.33 134.53C179.688 136.254 180.498 137.393 180.525 137.432C180.745 137.744 181.084 137.951 181.46 138.004C185.648 146.301 189.828 160.146 182.969 175.725C189.432 175.309 198.61 174.828 206.337 174.828C206.974 174.828 207.586 174.84 208.17 174.867C209.79 174.932 211.237 175.079 212.545 175.264C212.61 176.447 212.712 177.667 212.856 178.928C212.321 178.909 211.769 178.899 211.197 178.899C197.74 178.899 179.685 180.378 179.503 180.392C179.109 180.425 178.748 180.625 178.511 180.942C171.158 190.77 157.758 196.343 157.623 196.397C157.098 196.613 156.757 197.127 156.765 197.694C156.766 197.861 156.954 212.567 157.16 219.487Z" fill="#121212"/>
<path d="M133.577 245.029C132.028 245.029 130.595 244.882 129.369 244.566C127.314 244.036 126.016 243.096 125.509 241.77C125.365 241.393 125.246 241.026 125.151 240.669C126.246 240.868 127.442 240.961 128.7 240.961C135.621 240.961 144.431 238.147 148.706 234.541C154.467 229.674 154.342 223.997 153.977 219.197C155.017 219.264 156.078 219.359 157.16 219.487C157.185 220.334 157.21 221.065 157.236 221.639C157.269 222.384 157.33 223.145 157.394 223.95C157.78 228.778 158.218 234.251 152.671 238.935C148.457 242.494 140.004 245.029 133.577 245.029Z" fill="#8898AE"/>
<path d="M226.559 180.844C225.334 180.844 223.957 180.557 222.19 180.188C219.767 179.682 216.821 179.066 212.856 178.928C212.712 177.667 212.61 176.447 212.545 175.264C216.584 175.835 219.298 176.77 221.688 176.77C224.239 176.77 226.42 175.707 229.452 172.007C234.862 165.412 238.648 154.849 238.142 148.112C238.857 148.431 239.531 148.903 240.152 149.524C243.996 153.368 240.251 168.036 233.243 176.584C230.557 179.86 228.821 180.844 226.559 180.844Z" fill="#8898AE"/>
<path d="M98.2804 161.621C98.3859 161.621 98.4923 161.633 98.5978 161.658C99.0909 161.774 99.481 162.151 99.6144 162.64C99.6616 162.813 104.501 180.098 118.143 190.953C118.445 191.193 118.632 191.548 118.661 191.932C118.681 192.204 120.795 219.24 128.493 230.02C128.712 230.326 128.796 230.707 128.728 231.077C128.658 231.446 128.442 231.772 128.128 231.978C127.927 232.114 123.095 235.456 125.508 241.77C126.016 243.096 127.314 244.036 129.369 244.566C135.683 246.192 147.442 243.351 152.67 238.935C158.217 234.251 157.78 228.778 157.394 223.95C157.33 223.145 157.268 222.384 157.235 221.639C157.002 216.388 156.767 197.881 156.764 197.694C156.757 197.127 157.098 196.613 157.623 196.398C157.757 196.343 171.158 190.77 178.51 180.942C178.747 180.625 179.109 180.425 179.503 180.392C179.685 180.378 197.739 178.899 211.196 178.899C216.018 178.899 219.44 179.614 222.19 180.188C227.223 181.238 229.105 181.632 233.243 176.584C240.251 168.036 243.996 153.368 240.152 149.524C238.592 147.964 236.694 147.343 234.665 147.726C231.852 148.258 229.294 150.587 227.822 153.958C227.635 154.384 227.247 154.689 226.787 154.768C226.326 154.845 225.86 154.687 225.543 154.346C225.42 154.215 212.656 140.973 181.523 138.011C181.122 137.973 180.758 137.762 180.525 137.432C180.431 137.3 171.03 124.067 161.936 118.956C161.562 118.746 161.307 118.375 161.245 117.951C161.183 117.526 161.322 117.097 161.619 116.789C161.718 116.688 171.563 106.484 181.508 93.8486C182.221 92.9435 182.915 92.0688 183.588 91.2203C192.396 80.1101 197.247 73.9898 194.052 64.1595C192.774 60.2251 189.737 57.5208 185.5 56.5456C180.379 55.3653 174.338 56.9264 171.132 60.2538C169.122 62.3401 166.146 65.4868 162.995 68.8176C156.212 75.9916 148.523 84.1214 145.229 87.252C140.403 91.8408 83.2459 138.169 80.8143 140.139C80.7974 140.153 80.7797 140.167 80.7611 140.181C80.5399 140.343 58.534 156.455 50.4802 161.988C46.4495 164.757 44.2611 168.94 44.3176 173.766C44.375 178.671 46.7838 183.388 50.4532 185.785C56.9813 190.048 82.7511 178.293 97.2495 162.082C97.5154 161.784 97.8911 161.621 98.2804 161.621ZM133.518 247.782C131.747 247.782 130.101 247.61 128.679 247.244C125.748 246.488 123.759 244.937 122.926 242.757C120.718 236.981 123.236 232.652 125.512 230.538C118.511 219.453 116.3 196.819 115.952 192.739C104.802 183.632 99.4852 170.874 97.6809 165.68C90.9518 172.665 81.5699 179.438 72.1298 184.074C67.0927 186.549 54.7498 191.894 48.941 188.1C44.5203 185.213 41.6201 179.599 41.5525 173.798C41.485 168.021 44.099 163.017 48.914 159.709C56.8057 154.287 78.2071 138.623 79.1003 137.969C80.6353 136.725 138.616 89.7241 143.325 85.2485C146.564 82.1685 154.226 74.0657 160.987 66.9179C164.141 63.582 167.121 60.4311 169.14 58.3355C173.037 54.2897 180.019 52.4449 186.121 53.8506C191.341 55.0521 195.091 58.4098 196.683 63.3051C200.335 74.5461 194.847 81.4686 185.754 92.9384C185.084 93.7844 184.392 94.6566 183.682 95.5591C175.68 105.725 167.741 114.332 164.8 117.457C172.951 122.711 180.631 132.877 182.412 135.32C208.736 137.954 222.043 147.57 226.157 151.137C228.075 147.854 230.967 145.61 234.151 145.008C237.079 144.455 239.904 145.365 242.107 147.568C247.486 152.948 242.827 169.256 235.381 178.337C230.181 184.681 226.776 183.97 221.625 182.895C218.999 182.347 215.733 181.664 211.196 181.664C199.246 181.664 183.606 182.843 180.342 183.1C173.527 191.87 162.697 197.165 159.541 198.58C159.593 202.398 159.797 216.982 159.998 221.515C160.029 222.213 160.088 222.949 160.151 223.729C160.546 228.674 161.088 235.447 154.455 241.048C149.749 245.022 140.627 247.782 133.518 247.782Z" fill="black"/>
<path d="M96.9668 163.434C95.8456 158.929 95.361 154.337 95.1778 149.717C95.117 148.195 95.1178 146.671 95.1372 145.152C95.1406 144.865 95.3762 144.636 95.6624 144.639C95.9351 144.643 96.1563 144.856 96.174 145.123C96.4079 148.109 96.7929 151.082 97.3518 154.021C97.9192 156.908 98.6115 159.838 99.6019 162.593C100.205 164.409 97.5317 165.271 96.9668 163.434Z" fill="black"/>
<path d="M161.897 118.933C157.768 116.351 153.256 114.303 148.76 112.417C147.425 111.858 145.516 111.121 144.148 110.6C143.545 110.361 143.843 109.444 144.478 109.617C147.65 110.511 150.909 111.512 154.003 112.628C156.365 113.478 158.714 114.394 161.006 115.436C161.784 115.79 162.524 116.137 163.33 116.568C164.005 116.929 164.259 117.768 163.898 118.442C163.517 119.166 162.569 119.396 161.897 118.933Z" fill="black"/>
<path d="M178.522 180.927C181.176 177.711 183.093 173.845 184.243 169.834C184.411 169.209 185.352 169.399 185.258 170.043C184.704 173.904 183.456 177.663 181.608 181.105C181.328 181.611 181.067 182.079 180.713 182.614C179.566 184.204 177.275 182.446 178.522 180.927Z" fill="black"/>
<path d="M182.895 136.025C184.343 139.761 185.417 143.591 186.153 147.515C186.263 148.14 185.36 148.379 185.151 147.778C183.896 144.139 182.304 140.571 180.407 137.235C179.49 135.497 182.092 134.226 182.895 136.025Z" fill="black"/>
<path d="M158.469 199.022C154.067 199.689 149.658 199.837 145.232 199.684C144.595 199.655 144.565 198.713 145.202 198.648C147.355 198.444 149.494 198.151 151.61 197.77C153.689 197.389 155.844 196.923 157.845 196.327C159.732 195.835 160.386 198.631 158.469 199.022Z" fill="black"/>
<path d="M227.856 153.873C225.947 158.913 225.269 164.484 225.928 169.843C226.02 170.494 225.061 170.68 224.909 170.033C223.626 164.417 223.761 158.51 225.254 152.935C225.87 151.097 228.555 152.056 227.856 153.873Z" fill="black"/>
<path d="M126.715 229.605C132.351 227.216 138.744 226.906 144.681 228.197C145.312 228.319 145.197 229.265 144.548 229.222C143.098 229.078 141.646 228.952 140.19 229.006C136.297 229.086 132.402 229.93 128.885 231.589C128.603 231.722 128.269 231.894 128.022 232.042C126.344 232.977 125.001 230.492 126.715 229.605Z" fill="black"/>
<path d="M67.348 168.566C69.4782 172.256 69.3971 176.291 67.1673 177.578C64.9375 178.866 60.4079 177.467 58.2777 173.778C56.1475 170.088 57.2232 165.505 59.4538 164.217C61.6836 162.929 65.2179 164.876 67.348 168.566Z" fill="#79BEFD"/>
<path d="M54.183 167.943C54.6887 169.115 53.6165 170.705 51.7885 171.492C49.9606 172.281 48.0694 171.97 47.5637 170.797C47.0579 169.626 48.1302 168.036 49.9581 167.247C51.786 166.459 53.6772 166.77 54.183 167.943Z" fill="#79BEFD"/>
<path d="M61.3524 180.167C61.8582 181.339 60.7859 182.928 58.958 183.717C57.1301 184.505 55.2388 184.194 54.7331 183.021C54.2274 181.849 55.2996 180.26 57.1275 179.472C58.9554 178.683 60.8467 178.994 61.3524 180.167Z" fill="#79BEFD"/>
<path d="M55.337 174.948C55.9516 176.373 54.968 178.168 53.1401 178.956C51.3122 179.745 49.3323 179.229 48.7176 177.803C48.1021 176.377 49.0858 174.582 50.9137 173.794C52.7416 173.006 54.7223 173.522 55.337 174.948Z" fill="#79BEFD"/>
<path d="M173.946 77.1543C171.003 74.0743 170.125 70.1356 171.986 68.3558C173.847 66.5769 178.579 66.8614 181.523 69.9414C184.467 73.0206 184.508 77.7292 182.646 79.5082C180.786 81.288 176.89 80.2334 173.946 77.1543Z" fill="#79BEFD"/>
<path d="M186.884 74.6399C186.115 73.6209 186.781 71.8225 188.37 70.6236C189.958 69.4238 191.87 69.2778 192.639 70.2968C193.408 71.3159 192.743 73.1143 191.154 74.314C189.565 75.5129 187.654 75.659 186.884 74.6399Z" fill="#79BEFD"/>
<path d="M177.022 64.4627C176.253 63.4436 176.917 61.6461 178.506 60.4463C180.096 59.2474 182.007 59.1014 182.776 60.1204C183.545 61.1395 182.88 62.9379 181.291 64.1368C179.702 65.3357 177.791 65.4817 177.022 64.4627Z" fill="#79BEFD"/>
<path d="M184.103 68.1075C183.169 66.8681 183.698 64.8915 185.287 63.6926C186.877 62.4937 188.922 62.5258 189.858 63.7652C190.793 65.0038 190.262 66.9812 188.673 68.1801C187.084 69.379 185.039 69.3469 184.103 68.1075Z" fill="#79BEFD"/>
<path d="M169.588 142.14C190.274 169.37 144.316 201.36 125.649 176.375C125.649 176.375 102.2 144.491 121.71 128.565C144.316 110.11 169.588 142.14 169.588 142.14Z" fill="white"/>
<path d="M79.5411 144.333C79.3013 144.333 79.0607 144.331 78.8218 144.329C80.8895 142.819 82.177 141.876 82.177 141.876C82.177 141.876 82.3518 141.734 82.6845 141.465C94.08 139.315 106.553 133.501 118.792 124.357C128.598 117.644 136.712 109.311 142.258 100.258C143.249 98.6383 144.146 97.0172 144.948 95.3987C145.677 105.219 140.499 115.112 131.889 123.408C128.499 124.189 125.073 125.818 121.71 128.565C119.52 130.352 117.872 132.34 116.67 134.463C105.603 140.538 92.4809 144.333 79.5411 144.333Z" fill="#121212"/>
<path d="M78.8221 144.329C77.6325 144.316 76.4513 144.27 75.2676 144.192C76.3306 143.418 77.2821 142.723 78.0825 142.138C79.5938 141.983 81.1296 141.758 82.6848 141.465C82.3521 141.734 82.1773 141.876 82.1773 141.876C82.1773 141.876 80.8898 142.819 78.8221 144.329Z" fill="#9D9D9D"/>
<path d="M75.2677 144.192C74.5644 144.145 73.8619 144.086 73.1611 144.016L75.5024 142.339C76.3551 142.295 77.2138 142.228 78.0826 142.139C77.2822 142.723 76.3306 143.418 75.2677 144.192Z" fill="#363636"/>
<path d="M116.67 134.463C117.872 132.34 119.52 130.352 121.71 128.565C125.074 125.818 128.499 124.189 131.889 123.408C127.575 127.563 122.396 131.319 116.67 134.463Z" fill="#8898AE"/>
<path d="M79.0594 154.796C80.558 156.456 83.123 158.575 84.663 155.979C85.0775 155.282 85.2928 154.347 85.4828 153.294C85.5081 153.055 85.8535 152.991 85.9641 153.201C88.3923 157.453 83.6237 161.857 79.8572 158.25C78.9791 157.353 78.4886 156.258 78.3223 155.147C78.248 154.741 78.7968 154.487 79.0594 154.796Z" fill="white"/>
<path d="M157.418 96.7217C158.985 97.8581 162.075 99.4446 162.815 96.8787C163.103 95.3404 162.479 93.9068 161.956 92.2967C161.869 92.0705 162.159 91.8602 162.348 92.008C163.365 92.7442 164.228 93.7371 164.728 95.0289C165.726 97.349 164.485 100.305 161.752 100.497C159.548 100.707 157.546 99.0528 156.78 97.23C156.6 96.8399 157.084 96.4608 157.418 96.7217Z" fill="white"/>
<path d="M199.118 155.374C199.955 156.581 200.738 157.758 201.672 158.672C203.573 160.581 205.369 160.74 205.64 157.668C205.75 156.385 205.547 154.975 205.33 153.502C205.277 153.25 205.634 153.098 205.779 153.307C207.452 155.471 208.634 159.255 206.381 161.547C204.369 163.468 201.389 161.958 200.089 160.005C199.15 158.705 198.599 157.219 198.356 155.666C198.285 155.23 198.885 155.005 199.118 155.374Z" fill="white"/>
<path d="M125.789 206.746C126.387 207.791 127.026 208.862 127.973 209.525C129.754 210.806 131.552 209.698 131.638 207.548C131.701 206.451 131.385 205.219 130.988 203.925C130.898 203.689 131.214 203.481 131.395 203.653C133.844 205.627 134.785 210.083 131.543 211.925C129.949 212.863 127.775 212.361 126.598 211.071C125.448 209.869 125.023 208.353 124.997 206.944C124.984 206.506 125.597 206.359 125.789 206.746Z" fill="white"/>
<path d="M33.0825 91.8494C33.7739 94.9032 34.6983 98.0238 35.8756 101.212V101.216C15.7472 90.3474 4.81185 81.4315 2.07403 74.2448C-1.84099 63.9891 10.9551 57.2735 37.5309 53.4809C31.8183 63.9494 29.7166 77.0614 33.0825 91.8494Z" fill="#2C2C2C"/>
<path d="M34.0631 100.229C15.0897 89.8069 4.72862 81.2119 2.07422 74.2448C7.41544 79.6551 18.2321 88.95 31.6181 91.5893C32.2429 94.4464 33.0588 97.3305 34.0631 100.229Z" fill="#121212"/>
<path d="M1.90803 73.7905C0.193679 68.6977 2.67432 64.4931 8.98109 61.0998C2.67686 64.4922 0.196379 68.6943 1.90879 73.7846C1.90854 73.7872 1.90829 73.7888 1.90803 73.7905ZM8.99054 61.0948C8.99282 61.0939 8.99502 61.0922 8.99722 61.0914C8.99494 61.0922 8.99291 61.0939 8.99054 61.0948Z" fill="#DFDFDF"/>
<path d="M1.90906 73.7847C0.196644 68.6944 2.67712 64.4923 8.98136 61.0999C8.9844 61.0982 8.98777 61.0965 8.99081 61.0948C8.99317 61.094 8.9952 61.0923 8.99748 61.0914C9.0028 61.0881 9.00778 61.0855 9.0131 61.083C9.01386 61.0821 9.01496 61.0821 9.01572 61.0813C14.8251 57.965 23.8634 55.5342 35.8503 53.7274C35.1078 55.1543 34.433 56.62 33.8286 58.1195C13.9333 61.3768 2.80309 66.4941 1.90906 73.7847Z" fill="#D2D2D2"/>
<path d="M116.777 37.998C113.296 35.7066 109.745 33.8103 106.166 32.2931L106.157 32.2855C104.506 31.5864 102.842 30.9616 101.183 30.4247C95.2927 28.4929 89.3793 27.5447 83.6194 27.4814C77.12 27.4063 70.8147 28.4608 64.9722 30.5074C67.0188 23.6846 68.9345 17.7905 70.9811 13.1604C79.0323 -5.07572 89.055 -3.66911 116.777 37.998Z" fill="#2C2C2C"/>
<path d="M67.0649 28.3628C68.3491 24.1675 69.6553 20.1562 71.0424 16.6236C71.2696 16.112 71.4992 15.6155 71.7306 15.1351C73.2461 18.7192 75.6844 22.3826 79.5994 25.1823C79.607 25.5099 79.6163 25.8434 79.6282 26.1828C75.3323 26.4319 71.1184 27.1647 67.0649 28.3628Z" fill="#121212"/>
<path d="M112.149 33.616C111.724 33.388 111.296 33.1634 110.868 32.9456C97.2913 13.6482 88.519 5.61215 82.0914 5.61215C77.8572 5.61215 74.6404 9.09323 71.7309 15.1351C71.7157 15.1004 71.7014 15.0658 71.687 15.0312C74.3922 8.56469 77.4266 4.01812 81.2031 3.45582C81.497 3.41191 81.7967 3.39081 82.104 3.39081C88.4988 3.39081 97.911 12.8495 112.149 33.616Z" fill="#D2D2D2"/>
<path d="M71.0425 16.6238C71.2552 16.0817 71.4697 15.5507 71.6867 15.0314C71.701 15.066 71.7154 15.1007 71.7306 15.1353C71.4992 15.6157 71.2696 16.1121 71.0425 16.6238Z" fill="#D3D3D3"/>
<path d="M33.1322 64.6348C4.50711 68.0669 3.32256 76.1596 32.5743 89.4219L33.1322 64.6348Z" fill="#79BEFD"/>
<path d="M15.597 79.8982C12.9766 77.8077 11.5217 75.9156 11.209 74.2169C11.5218 75.9139 12.9768 77.806 15.5956 79.8948C15.5961 79.8957 15.5966 79.8973 15.597 79.8982ZM14.4011 69.2482C14.4037 69.2465 14.4059 69.2456 14.4085 69.2439C14.4058 69.2456 14.4039 69.2465 14.4011 69.2482ZM14.4119 69.2423C17.7092 67.3502 23.4835 65.8802 31.6589 64.8173C31.6587 64.8181 31.6587 64.8181 31.6585 64.819C23.4839 65.8811 17.7088 67.351 14.4119 69.2423Z" fill="#121212"/>
<path d="M15.596 79.8948C12.9771 77.806 11.5221 75.9139 11.2093 74.2168C10.86 72.3205 11.9354 70.6666 14.4014 69.2481C14.4042 69.2464 14.4061 69.2456 14.4088 69.2439C14.4103 69.2431 14.4107 69.2431 14.4123 69.2422C17.7091 67.351 23.4842 65.8811 31.6588 64.8189C31.505 65.4378 31.3625 66.06 31.2313 66.6874C30.8853 68.3413 30.6185 70.0181 30.4303 71.716C18.9337 72.551 13.8772 75.2452 15.596 79.8948Z" fill="#5D8CE8"/>
<path d="M80.8675 27.5169C79.7471 3.3682 87.4666 7.57704 104.983 31.8018L80.8675 27.5169Z" fill="#79BEFD"/>
<path d="M101.499 29.0586C100.426 28.7107 99.3471 28.3924 98.2605 28.1045C92.5395 21.047 88.3036 17.2637 85.498 17.2637C83.8119 17.2637 82.6417 18.6289 81.9756 21.4692C82.1799 14.6109 83.5299 12.9645 84.4384 12.6471C84.614 12.5854 84.8048 12.555 85.0109 12.555C87.7835 12.555 93.3162 18.0936 101.499 29.0586Z" fill="#5D8CE8"/>
<path d="M148.469 75.7425C148.749 91.3671 137.15 110.124 117.989 123.233C80.7665 151.053 45.5228 145.431 40.7668 112.107C38.8114 108.406 37.1874 104.771 35.8758 101.216V101.212C32.7903 92.8447 31.4194 84.9074 31.4748 77.5636C31.5379 68.56 33.7345 60.4378 37.5311 53.4808C43.4686 42.6045 53.3055 34.5844 64.9721 30.5073C80.6204 25.032 99.5556 26.6556 116.777 37.9979C122.351 41.6681 127.751 46.3616 132.797 52.1645C143.431 57.3325 148.299 65.9207 148.469 75.7425Z" fill="#2C2C2C"/>
<path d="M71.1886 138.874C67.2761 138.874 63.6051 138.354 60.2347 137.327C60.1055 137.275 59.9771 137.223 59.8488 137.17C50.038 133.097 43.9118 124.363 42.1337 111.913C42.1109 111.756 42.0619 111.603 41.9868 111.463C34.721 97.7071 32.2453 85.338 32.9294 74.6585C33.5001 79.9953 34.7784 85.5922 36.8594 91.3984V91.4026C38.1317 94.958 41.0276 103.176 44.5551 107.758C45.7084 116.086 48.5293 122.344 52.6773 126.607C57.2205 131.283 63.3586 133.57 70.639 133.57C83.2951 133.57 99.4086 126.667 116.631 113.42C133.845 101.294 144.775 84.3417 146.106 69.5015C146.123 69.5378 146.139 69.5732 146.156 69.6087C148.73 85.9273 136.836 106.835 116.018 121.08C99.9413 133.095 84.2306 138.874 71.1886 138.874Z" fill="#121212"/>
<path d="M146.426 70.2224C146.339 70.0172 146.249 69.8121 146.156 69.6086C146.143 69.5309 146.13 69.4516 146.118 69.3739C146.113 69.4161 146.11 69.4592 146.106 69.5014C143.677 64.2591 139.323 59.7987 132.796 56.6291C127.751 50.8254 122.351 46.1319 116.776 42.4618C105.782 35.221 94.0867 31.9401 82.9959 31.9401C76.7152 31.9401 70.6294 32.9921 64.9718 34.972C53.3052 39.0491 43.4682 47.0683 37.5308 57.9446C36.498 59.8358 35.5833 61.814 34.7979 63.8733C38.1652 52.2548 45.4439 43.3677 53.583 37.7885C61.6798 32.2381 72.0386 28.8229 83.2307 28.8229C93.7211 28.8229 104.941 31.8236 115.712 38.8819C115.889 39.0964 116.121 39.2458 116.374 39.3218C121.662 42.8763 126.836 47.4178 131.754 53.0713C131.877 53.2114 132.025 53.3262 132.193 53.4073C139.877 57.1425 144.736 62.9082 146.426 70.2224Z" fill="#D2D2D2"/>
<path d="M146.156 69.6086C146.139 69.5732 146.123 69.5377 146.106 69.5014C146.11 69.4592 146.114 69.4162 146.118 69.3739C146.13 69.4516 146.143 69.531 146.156 69.6086Z" fill="#D3D3D3"/>
<path d="M121.758 82.4825C129.526 91.2556 124.985 103.074 114.158 112.661C103.331 122.248 90.3164 125.972 82.5489 117.199C74.7804 108.425 74.2891 91.0935 85.1164 81.5065C95.9437 71.9194 113.99 73.7093 121.758 82.4825Z" fill="white"/>
<path d="M83.2309 28.823C72.0388 28.823 61.6801 32.2382 53.5833 37.7886C36.4757 49.516 23.174 75.8481 41.9868 111.463C42.0619 111.603 42.1109 111.756 42.1337 111.913C43.9118 124.363 50.038 133.097 59.8488 137.17C63.8601 138.835 68.3374 139.65 73.1407 139.651C86.2653 139.652 101.847 133.571 117.16 122.125C117.175 122.113 117.191 122.102 117.207 122.091C136.197 109.1 148.176 89.8415 147.018 74.1679C146.337 64.9701 141.212 57.791 132.194 53.4073C132.026 53.3263 131.877 53.2115 131.755 53.0713C116.636 35.6897 99.097 28.823 83.2309 28.823ZM73.0934 142.402C67.9355 142.402 63.1188 141.522 58.7892 139.725C48.243 135.346 41.3755 125.698 39.4302 112.543C31.1062 96.6913 28.2706 80.8387 31.2311 66.6874C33.8972 53.9426 41.2801 42.8696 52.0196 35.5073C63.3856 27.7152 77.4846 24.6048 91.7162 26.7477C107.298 29.094 121.795 37.4939 133.657 51.045C143.453 55.8955 149.026 63.8151 149.775 73.9644C150.381 82.1474 147.781 91.2397 142.258 100.258C136.712 109.311 128.599 117.644 118.792 124.357C103.011 136.146 86.8428 142.401 73.0934 142.402Z" fill="black"/>
<path d="M35.8756 102.6C35.6538 102.6 35.429 102.547 35.2199 102.434C10.0426 88.8411 -1.43141 77.9471 0.142196 69.13C1.58511 61.0458 13.7527 55.4794 37.3401 52.1114C38.0962 52.0034 38.7961 52.5294 38.9042 53.285C39.0123 54.0407 38.4871 54.7414 37.7309 54.8495C10.3955 58.7519 3.68244 65.0335 2.86473 69.6164C1.9582 74.6957 7.06361 84.0902 36.5338 100C37.2058 100.363 37.4564 101.203 37.0936 101.875C36.8436 102.337 36.3674 102.6 35.8756 102.6Z" fill="black"/>
<path d="M116.777 39.3818C116.329 39.3818 115.89 39.1649 115.624 38.7647C98.6983 13.3225 88.088 2.43603 81.2027 3.45594C74.7548 4.41507 70.4725 16.9867 66.2957 30.9034C66.0762 31.6354 65.3053 32.0508 64.5742 31.8304C63.8422 31.6109 63.4276 30.84 63.6471 30.1089C68.4234 14.1929 72.7192 1.92269 80.7958 0.720405C89.0919 -0.509743 99.8525 10.0634 117.926 37.2331C118.349 37.8688 118.176 38.7267 117.541 39.1497C117.305 39.3067 117.039 39.3818 116.777 39.3818Z" fill="black"/>
<path d="M32.5737 90.6074C32.41 90.6074 32.2436 90.5736 32.0849 90.5019C16.2711 83.3321 9.25785 77.7132 10.0135 72.818C10.7222 68.2275 18.0235 65.253 32.9913 63.458C33.6414 63.3804 34.2314 63.8439 34.3091 64.494C34.387 65.1441 33.9232 65.7343 33.2733 65.812C15.7387 67.9143 12.6416 71.3303 12.3562 73.1793C12.0449 75.1955 14.3214 79.8451 33.0636 88.3422C33.6597 88.6132 33.924 89.3156 33.6538 89.9117C33.4555 90.3491 33.0244 90.6074 32.5737 90.6074Z" fill="black"/>
<path d="M104.984 32.9871C104.616 32.9871 104.254 32.8174 104.022 32.4965C93.7988 18.357 87.2107 11.6786 84.438 12.647C83.3084 13.0421 81.4965 15.4914 82.052 27.462C82.0816 28.1163 81.5767 28.6701 80.9224 28.7014C80.2731 28.7335 79.7142 28.2261 79.6838 27.5717C79.1856 16.8364 80.4107 11.5435 83.6562 10.4096C87.86 8.93798 94.1104 14.7425 105.943 31.1076C106.327 31.6379 106.208 32.3792 105.677 32.7625C105.467 32.9145 105.225 32.9871 104.984 32.9871Z" fill="black"/>
<path d="M65.3477 100.11C61.2107 102.5 55.2693 99.9479 52.0736 94.4126C51.7452 93.8444 51.4607 93.2669 51.2158 92.6869C54.8311 87.6886 57.7186 82.8254 59.5558 79.5115C62.3885 80.3246 65.1856 82.5333 67.0499 85.7653C70.2464 91.2997 69.484 97.7231 65.3477 100.11Z" fill="#121212"/>
<path d="M48.5628 95.3186C50.292 91.656 52.4154 88.3303 54.532 84.9168C56.7171 81.5565 58.8574 78.1539 61.5094 75.1178C61.7179 74.8434 62.1873 75.068 62.097 75.4024C60.6034 81.3597 57.4854 86.7937 53.6911 91.5775C52.4112 93.1622 50.9843 94.644 49.4206 95.9881C48.9765 96.3799 48.2867 95.8454 48.5628 95.3186Z" fill="#121212"/>
<path d="M60.9407 88.3809C61.8087 89.8846 61.5444 91.6627 60.3497 92.3525C59.155 93.0423 57.4833 92.3821 56.6145 90.8784C55.7466 89.3747 56.0108 87.5966 57.2055 86.9068C58.4002 86.217 60.0728 86.8772 60.9407 88.3809Z" fill="white"/>
<path d="M109.121 69.3267C105.07 71.6654 99.4296 69.4685 96.5176 64.428C94.7598 61.3818 94.4001 57.9962 95.285 55.2783C98.2873 54.5472 102.084 53.3027 106.244 51.1733C108.164 52.1527 109.922 53.7924 111.175 55.9656C114.086 61.0061 113.166 66.9914 109.121 69.3267Z" fill="#121212"/>
<path d="M106.011 57.4676C106.879 58.9713 106.615 60.7502 105.42 61.44C104.225 62.129 102.553 61.4696 101.685 59.9659C100.816 58.4613 101.081 56.6832 102.276 55.9935C103.47 55.3037 105.142 55.9639 106.011 57.4676Z" fill="white"/>
<path d="M109.115 50.221C105.027 53.9993 99.6156 56.2367 94.1082 56.8674C92.2575 57.048 90.384 57.0683 88.5131 56.6318C88.3324 56.5896 88.2201 56.4089 88.2623 56.2282C88.2927 56.1016 88.3889 56.0113 88.5071 55.9792L93.5831 54.3362C96.9189 53.2614 100.185 52.1519 103.487 50.9725C104.992 50.4667 107.022 49.6663 108.565 49.2813C109.117 49.1006 109.545 49.8318 109.115 50.221Z" fill="#121212"/>
<path d="M84.0653 88.196C86.1254 85.1557 88.9032 82.866 92.6156 81.5539C93.6017 81.2052 94.6478 81.8908 94.7517 82.9318C94.9408 84.8188 94.8471 87.7021 93.0209 89.715C92.8604 89.8923 92.6544 90.0214 92.4315 90.1093C91.4285 90.5044 88.4346 91.4838 85.0422 90.669C83.948 90.4064 83.4338 89.1282 84.0653 88.196Z" fill="#121212"/>
<path d="M91.7674 84.0218C92.1845 84.5951 91.4626 85.8312 90.1548 86.7818C88.8469 87.7325 87.4488 88.039 87.0325 87.4657C86.6155 86.8924 87.6919 85.897 88.9989 84.9463C90.3067 83.9957 91.3511 83.4494 91.7674 84.0218Z" fill="white"/>
<path d="M94.4729 93.0515L94.2931 92.9569L91.3203 89.7604L93.0554 88.1453L95.7563 91.0488L95.9142 91.1316L96.1041 91.4929L95.0445 92.0223L94.4729 93.0515Z" fill="#121212"/>
<path d="M94.5267 91.466C94.5697 91.5166 94.6136 91.5647 94.6524 91.612C95.6521 92.7856 95.7391 93.9626 94.9252 95.1395C94.9176 95.1513 94.91 95.1598 94.9015 95.1716C92.0571 99.2918 92.8431 105.372 95.3794 108.295C96.0751 109.098 96.889 109.615 97.7899 109.884C100.661 110.745 104.399 109.077 107.856 106.083C111.826 102.646 114.114 98.5927 112.679 95.381C112.478 94.9183 112.194 94.4725 111.826 94.0453C110.203 92.1769 107.015 90.9957 103.724 90.9957C101.863 90.9957 99.9665 91.3706 98.3032 92.2165C96.4896 93.1208 95.6876 92.7772 94.6524 91.612" fill="#212121"/>
<path d="M107.856 106.083C104.399 109.077 100.661 110.745 97.7899 109.884C96.6914 106.956 97.9435 102.63 101.167 99.1457C104.794 95.2189 109.677 93.7017 112.679 95.381C114.114 98.5927 111.826 102.646 107.856 106.083Z" fill="#79BEFD"/>
<path d="M95.8609 95.8691C93.4141 99.4607 94.06 104.966 96.2754 107.519C96.8073 108.133 97.4135 108.534 98.1287 108.748C100.381 109.424 103.727 108.092 107.08 105.187C111 101.794 112.689 98.3083 111.598 95.864C111.439 95.5001 111.215 95.1523 110.928 94.8188C109.559 93.2424 106.662 92.1812 103.724 92.1812C101.935 92.1812 100.246 92.5586 98.8404 93.2728C97.9885 93.6975 97.2708 93.8942 96.6444 93.912C96.576 94.5536 96.3294 95.1936 95.9005 95.8142L95.8609 95.8691ZM99.4154 111.298C98.7298 111.298 98.0729 111.206 97.4498 111.018C96.3075 110.678 95.3087 110.023 94.4846 109.071C91.6292 105.78 90.7233 99.1391 93.9266 94.4979L93.9662 94.443C94.3808 93.8233 94.4846 93.2416 93.7509 92.3804L93.6226 92.2318L95.4311 90.6994L95.5392 90.8252C96.2045 91.5741 96.4282 91.8274 97.774 91.1553C99.5032 90.2773 101.563 89.8104 103.724 89.8104C107.42 89.8104 110.867 91.1351 112.721 93.2678C113.167 93.7853 113.517 94.3358 113.766 94.9074C115.325 98.3994 113.455 102.803 108.632 106.979C105.36 109.813 102.163 111.298 99.4154 111.298Z" fill="#121212"/>
<path d="M42.132 69.19C47.8201 75.0157 49.7029 70.5595 46.6904 64.7937C46.5705 64.57 46.8635 64.3235 47.0627 64.4763C49.6235 66.1961 51.6524 70.2234 49.344 73.0324C48.0531 74.6197 45.5312 74.4846 44.079 73.3415C42.7239 72.3528 41.9159 71.007 41.4355 69.6164C41.286 69.2001 41.8348 68.87 42.132 69.19Z" fill="white"/>
<path d="M66.3979 48.6271C67.7834 49.9475 70.5139 51.0755 71.5355 48.9825C71.8462 48.2412 71.8056 47.3488 71.8065 46.4834C71.8023 46.2571 72.1037 46.1414 72.254 46.3061C72.975 47.0415 73.5145 48.0664 73.4427 49.3337C73.2528 52.2998 69.6324 53.2901 67.4761 51.74C66.4899 51.0789 65.8415 50.0531 65.6726 49.0011C65.5958 48.6026 66.1218 48.3391 66.3979 48.6271Z" fill="white"/>
<path d="M58.0859 119.296C58.7605 120.589 59.4925 121.87 60.5631 122.803C61.5391 123.679 62.7625 124.1 63.7579 123.855C65.5943 123.489 65.7598 121.125 65.2675 119.471C65.1096 118.748 64.7989 118.045 64.5381 117.289C64.446 117.054 64.7643 116.847 64.9416 117.021C67.3015 118.941 68.7992 123.257 65.7733 125.493C63.6456 127.053 60.5842 126.148 59.0712 124.237C57.9035 122.831 57.3792 121.131 57.2948 119.497C57.2678 119.048 57.8993 118.894 58.0859 119.296Z" fill="white"/>
<path d="M106.157 32.2856C106.132 32.2747 106.105 32.2637 106.079 32.2527C106.082 32.2468 106.084 32.2409 106.086 32.235C106.11 32.2519 106.133 32.2688 106.157 32.2856ZM102.956 31.031C102.365 30.8183 101.774 30.6165 101.183 30.4248C101.745 30.5202 102.271 30.635 102.763 30.7667C102.827 30.8537 102.892 30.9432 102.956 31.031Z" fill="black"/>
<path d="M106.08 32.2527C105.042 31.8145 104 31.4067 102.957 31.031C102.892 30.9432 102.827 30.8537 102.763 30.7667C104.126 31.1323 105.225 31.6321 106.086 32.235C106.085 32.2409 106.082 32.2468 106.08 32.2527Z" fill="black"/>
<path d="M95.5923 40.5976C95.6429 40.4912 95.6277 40.3156 95.7451 40.237C95.8371 40.1763 95.8616 40.1898 95.9182 40.1661C95.9764 40.1492 96.1478 40.0901 96.2103 40.0741C97.1002 39.8039 98.0695 39.5743 98.9805 39.3936C101.239 39.017 103.98 38.4058 105.833 40.1855C108.309 42.4086 107.14 46.2941 103.747 46.5904C101.8 46.6487 100.397 44.8537 99.3781 43.507C98.4308 42.412 97.1306 41.5533 95.8853 40.8061C95.7873 40.7411 95.6657 40.709 95.5923 40.5976ZM96.1411 40.5976C96.2196 40.4219 96.2432 40.2092 96.0322 40.1028C96.0423 40.1062 96.0828 40.1222 96.093 40.1256C96.5658 40.3054 97.0597 40.5097 97.5131 40.7318C98.5262 41.2316 99.4997 41.7728 100.359 42.5454C101.352 43.4749 102.284 44.7625 103.66 44.7473C106.094 44.1048 105.378 41.3667 103.234 40.7529C101.895 40.4405 100.474 40.5646 99.0978 40.5452C98.1378 40.5469 97.1044 40.584 96.1411 40.5976Z" fill="white"/>
</svg>
