<svg width="462" height="459" viewBox="0 0 462 459" fill="none" xmlns="http://www.w3.org/2000/svg">
<g filter="url(#filter0_f_57_93)">
<path fill-rule="evenodd" clip-rule="evenodd" d="M230.974 381.947C316.009 381.947 384.949 367.412 384.949 349.482C384.949 327.633 77 327.977 77 349.482C77 367.412 145.936 381.947 230.974 381.947Z" fill="#C7C7C7"/>
</g>
<path fill-rule="evenodd" clip-rule="evenodd" d="M307.464 142.017C307.852 143.689 308.204 145.37 308.658 147.024C309.677 150.713 308.191 154.386 306.144 157.506C323.298 169.637 329.545 193.638 331.704 213.831C331.889 215.558 331.158 217.179 329.743 218.181C329.282 218.51 328.783 218.747 328.266 218.891C329.309 228.828 328.855 239.001 327.036 248.572C326.08 253.605 324.554 259.281 322.333 264.71C322.185 265.331 322.021 265.949 321.84 266.561C328.032 266.12 333.9 266.325 339.285 267.317C354.084 270.046 367.686 278.616 372.069 293.702C375.012 303.838 372.874 314.4 367.497 323.325C360.79 334.454 349.702 342.345 337.926 347.401C336.163 348.158 334.39 348.884 332.609 349.579C330.002 360.261 323.519 369.835 312.648 373.769C306.203 376.102 298.806 376.064 292.091 375.179C286.563 374.453 281.074 373.11 275.76 371.449C266.717 368.628 257.744 364.816 249.496 360.159C248.336 359.504 247.175 358.829 246.032 358.119C241.06 357.204 236.121 356.049 231.262 354.636C230.166 355.179 229.065 355.702 227.954 356.207C215.81 361.769 202.742 365.727 189.828 369.046C187.571 369.629 185.13 370.195 182.584 370.682C182.12 370.945 181.587 371.098 181.015 371.109C180.734 371.111 180.452 371.115 180.172 371.111C168.178 373.078 154.464 372.843 146.525 363.629C143.6 360.233 141.938 356.131 141.147 351.791C134.7 350.546 128.331 348.989 122.098 347.079C110.831 343.622 99.8971 337.628 92.9986 327.797C87.5065 319.967 85.3253 310.659 86.7342 301.2C89.2605 284.25 102.642 270.172 119.458 266.83C123.132 266.101 126.998 265.787 131.01 265.832C129.391 259.899 129.419 253.538 131.023 247.578C129.798 239.527 129.43 231.24 129.706 223.222C129.535 223.131 129.367 223.032 129.205 222.919C127.845 221.987 127.086 220.474 127.157 218.825C128.075 197.45 133.265 174.396 148.451 159.642C145.714 156.14 143.134 151.596 144.396 147.024C145.031 144.727 145.459 142.378 146.074 140.074C141.829 135.708 138.72 130.198 138.072 124.075C137.766 121.19 138.036 118.286 138.869 115.507C140.588 109.792 144.129 104.746 150.025 102.944C149.213 101.432 148.484 99.884 147.855 98.3112C146.607 95.1876 145.742 91.906 145.474 88.5486C145.049 83.2682 145.606 76.8031 150.252 73.3979C150.336 73.3367 150.416 73.278 150.502 73.2192C149.897 73.0013 149.303 72.7687 148.725 72.5227C145.681 71.2241 142.283 69.1628 141.064 65.9119C139.957 62.9608 141.004 60.0514 142.758 57.6083C145.684 53.5397 149.995 49.9889 154.063 47.1076C158.453 43.9962 163.172 41.2385 167.947 38.7587C169.092 38.1638 170.256 37.5714 171.431 36.9986C169.807 35.979 168.21 34.8811 166.741 33.7684C164.232 31.8615 159.68 28.1588 160.474 24.5529C160.702 23.5113 161.327 22.6753 162.178 22.0511C163.368 21.1784 165.085 20.455 166.452 19.8993C168.668 18.996 170.95 18.2114 173.226 17.4758C179.189 15.5455 185.325 13.9103 191.439 12.5222C196.723 11.3215 202.13 10.2725 207.514 9.6324C211.304 9.18319 216.213 8.76335 219.964 9.53324C220.341 9.61158 221.29 9.79761 222.09 9.88329C221.793 9.31536 221.44 8.69971 221.295 8.40962C220.636 7.07913 220.099 5.59074 220.407 4.08644C220.858 1.87712 222.817 0.780428 224.83 0.23942C228.049 -0.627172 232.651 1.04971 235.608 2.28717C240.181 4.20151 244.68 6.71069 248.934 9.24682C253.437 11.9298 257.849 14.7928 262.18 17.7487C261.138 15.4378 260.334 12.5896 261.643 10.51C262.352 9.38514 263.494 8.77557 264.777 8.53934C265.318 8.43897 265.871 8.41817 266.42 8.48059C270.345 8.91878 273.152 13.3558 274.799 16.5455C276.102 19.0645 277.302 22.0107 278.198 24.821C281.179 24.5884 284.365 24.5725 287.246 24.7855C290.859 25.0548 296.649 25.8724 298.382 29.5872C298.9 30.6962 299.046 31.8969 298.618 33.061C297.681 35.5983 294.481 36.6742 292.081 37.2177C291.673 37.3095 291.257 37.3939 290.83 37.4723C292.612 38.848 294.321 40.3279 295.946 41.8774C302.255 47.8922 307.41 55.164 310.465 63.3586C313.876 72.5178 309.469 85.9476 305.987 94.5853C304.932 97.1998 303.796 99.7934 302.588 102.359C303.492 102.446 304.398 102.611 305.29 102.866C311.349 104.594 314.971 109.707 316.714 115.507C317.549 118.286 317.817 121.19 317.511 124.075C316.762 131.145 312.734 137.4 307.464 142.017Z" fill="#08090A"/>
<path fill-rule="evenodd" clip-rule="evenodd" d="M129.037 282.629C134.12 275.307 138.41 267.623 141.686 259.329C144.429 252.368 146.327 245.28 147.917 237.981C149.131 232.429 150.178 226.843 151.37 221.285C152.691 215.124 154.194 209.04 156.075 203.026C161.129 186.88 168.652 172.192 177.892 158.054C178.338 157.369 178.983 156.949 179.789 156.812C184.602 155.998 189.427 155.239 194.248 154.498C204.736 152.886 215.251 151.389 225.782 150.099C234.689 149.009 243.688 148.021 252.643 147.497C256.204 147.29 259.803 147.148 263.366 147.228C265.836 147.285 268.703 147.428 271.091 148.083C274.561 149.034 276.981 153.419 278.444 156.419C280.9 161.462 282.775 167.151 284.408 172.512C286.589 179.688 288.464 186.989 290.205 194.284C292.164 202.49 293.954 210.744 295.645 219.009C298.956 235.183 301.917 251.442 304.67 267.721C305.936 275.206 307.178 282.706 308.314 290.209C308.398 290.764 308.335 291.264 308.104 291.777C306.489 295.436 300.48 299.348 297.211 301.18C291.485 304.394 285.098 306.846 278.868 308.866C268.458 312.238 257.584 314.651 246.824 316.591C236.085 318.525 224.994 319.023 214.105 318.594C203.451 318.174 192.771 316.858 182.318 314.785C173.029 312.941 163.707 310.476 154.808 307.214C148.271 304.818 141.05 301.698 135.354 297.646C131.719 295.061 127.103 290.897 127.741 285.931C127.892 284.729 128.347 283.621 129.037 282.629Z" fill="#08090A"/>
<path fill-rule="evenodd" clip-rule="evenodd" d="M131.359 284.242C121.923 297.824 193.128 323.394 246.321 313.804C299.511 304.216 305.515 290.635 305.515 290.635C305.515 290.635 284.925 154.81 270.341 150.816C255.754 146.821 180.26 159.604 180.26 159.604C142.769 216.967 161.446 240.943 131.359 284.242Z" fill="#1B1B1B"/>
<path fill-rule="evenodd" clip-rule="evenodd" d="M190.324 270.367C210.3 268.769 234.467 263.574 248.052 255.985C261.632 248.395 261.232 268.769 233.67 272.963C206.107 277.159 186.13 272.762 190.324 270.367ZM164.629 307.491C187.978 314.516 219.446 318.647 246.321 313.803C249.43 313.244 252.373 312.669 255.17 312.082C258.595 308.012 260.632 305.32 260.632 305.32L297.388 278.955L250.248 183.878C250.248 183.878 267.826 228.22 256.64 241.005C245.455 253.787 207.506 260.977 199.912 261.376C192.323 261.778 207.902 223.826 207.506 184.276C179.939 198.66 167.155 272.963 163.961 290.542C162.882 296.46 163.078 301.93 164.629 307.491Z" fill="#070707"/>
<path fill-rule="evenodd" clip-rule="evenodd" d="M322.329 200.16C327.374 215.144 328.177 232.449 325.18 248.218C323.049 259.45 317.815 274.82 307.84 281.753C306.774 282.492 305.595 283.005 304.333 283.241C298.523 284.321 293.075 279.243 289.618 275.358C284.665 269.791 280.396 262.916 276.706 256.432C272.727 249.444 269.098 242.203 265.707 234.898C264.145 231.532 262.598 228.12 261.171 224.686C260.74 223.645 260.957 222.498 261.744 221.642L285.333 196.075C285.979 195.374 286.831 195.045 287.764 195.135L320.019 198.334C321.116 198.441 321.977 199.123 322.329 200.16Z" fill="#08090A"/>
<path fill-rule="evenodd" clip-rule="evenodd" d="M319.64 201.147C329.868 231.508 321.224 269.062 306.28 279.45C291.334 289.834 263.795 223.521 263.795 223.521L287.384 197.954L319.64 201.147Z" fill="#C57B68"/>
<path fill-rule="evenodd" clip-rule="evenodd" d="M186.004 122.428C192.036 94.2825 216.283 85.8945 242.316 90.9006C252.13 92.788 261.223 97.2458 267.432 105.259C269.703 108.19 272.189 112.596 272.948 116.301C272.979 116.454 272.998 116.586 273.006 116.742C273.199 121.022 273.173 125.413 273.079 129.69C272.878 138.929 272.208 148.303 270.732 157.43C269.433 165.49 267.382 174.223 263.719 181.556C257.927 193.136 247.36 200.373 234.563 201.955C224.403 203.212 213.617 200.731 205.154 194.927C202.188 192.894 199.53 190.509 197.254 187.714C191.334 180.446 188.799 171.379 187.474 162.257C186.627 156.438 186.257 150.512 186.064 144.638C185.823 137.43 185.853 130.2 185.943 122.988C185.946 122.791 185.962 122.622 186.004 122.428Z" fill="#08090A"/>
<path fill-rule="evenodd" clip-rule="evenodd" d="M188.773 123.023C188.302 161.36 190.193 181.236 206.756 192.593C223.323 203.952 250.299 202.06 261.184 180.29C272.069 158.519 270.177 116.87 270.177 116.87C270.177 116.87 266.392 98.4137 241.78 93.6793C217.168 88.9473 194.452 96.519 188.773 123.023Z" fill="#C57B68"/>
<path fill-rule="evenodd" clip-rule="evenodd" d="M138.495 193.333L164.218 195.13C164.928 195.18 165.519 195.449 166.024 195.951L191.625 221.518C192.415 222.305 192.666 223.402 192.297 224.454C191.116 227.846 189.804 231.23 188.477 234.566C185.601 241.8 182.472 248.992 178.977 255.949C175.764 262.341 171.997 269.138 167.502 274.715C165.647 277.013 163.489 279.319 161.043 280.995C158.819 282.521 156.254 283.577 153.511 283.361C151.919 283.233 150.439 282.69 149.111 281.815C141.464 276.794 137.265 266.248 135.034 257.757C132.002 246.239 131.117 233.464 131.662 221.591C132.062 212.82 133.275 203.9 135.564 195.42C135.922 194.1 137.133 193.237 138.495 193.333Z" fill="#08090A"/>
<path fill-rule="evenodd" clip-rule="evenodd" d="M138.299 196.154C130.102 226.516 134.848 269.062 150.665 279.45C166.479 289.834 189.628 223.521 189.628 223.521L164.022 197.954L138.299 196.154Z" fill="#C57B68"/>
<path fill-rule="evenodd" clip-rule="evenodd" d="M325.797 216.89C315.576 212.032 304.022 209.56 292.976 212.988C290.027 213.9 287.162 215.23 284.602 216.955C283.718 217.553 282.616 218.349 281.864 219.114C281.12 219.868 280.104 220.14 279.084 219.855C278.064 219.571 277.337 218.811 277.094 217.783L262.855 157.861C262.529 156.485 263.245 155.102 264.558 154.577C267.343 153.465 270.822 152.703 273.758 152.261C280.565 151.239 287.581 151.57 294.164 153.654C319.299 161.609 327.338 190.741 329.826 214.034C329.939 215.08 329.508 216.032 328.65 216.642C327.794 217.25 326.747 217.341 325.797 216.89Z" fill="#08090A"/>
<path fill-rule="evenodd" clip-rule="evenodd" d="M327.012 214.332C296.755 199.952 279.844 217.128 279.844 217.128L265.609 157.207C265.609 157.207 318.639 136.033 327.012 214.332Z" fill="#1B1B1B"/>
<path fill-rule="evenodd" clip-rule="evenodd" d="M327.012 214.332C325.161 213.451 323.355 212.692 321.603 212.035C320.737 195.273 309.636 170.971 296.287 160.911C296.287 160.911 296.673 159.8 297.316 157.991C310.324 163.88 323.23 178.949 327.012 214.332Z" fill="#2C2C2C"/>
<path fill-rule="evenodd" clip-rule="evenodd" d="M129.042 218.905C130.202 191.844 138.267 161.808 165.728 150.601C173.139 147.576 181.209 146.296 189.193 146.465C192.612 146.535 196.659 146.859 200.012 147.662C201.213 147.949 202.057 148.923 202.174 150.151L204.843 178.522C204.896 179.101 204.793 179.613 204.516 180.128L183.893 218.471C183.489 219.222 182.844 219.709 182.009 219.893C181.175 220.075 180.384 219.908 179.702 219.395C178.971 218.845 177.86 218.303 177.04 217.926C174.342 216.693 171.38 215.898 168.46 215.433C156.558 213.549 143.849 216.874 133.002 221.62C132.082 222.024 131.098 221.93 130.271 221.362C129.442 220.794 128.998 219.909 129.042 218.905Z" fill="#08090A"/>
<path fill-rule="evenodd" clip-rule="evenodd" d="M131.872 219.026C164.747 204.646 181.401 217.128 181.401 217.128L202.023 178.787L199.355 150.416C199.355 150.416 135.467 135.133 131.872 219.026Z" fill="#1B1B1B"/>
<path fill-rule="evenodd" clip-rule="evenodd" d="M131.872 219.026C133.521 218.305 135.127 217.654 136.695 217.061C136.693 216.921 136.692 216.783 136.692 216.641C136.692 194.668 148.279 169.102 159.663 162.31C158.5 161.232 157.368 160.238 156.264 159.307C143.87 168.638 133.275 186.275 131.872 219.026Z" fill="#2C2C2C"/>
<path fill-rule="evenodd" clip-rule="evenodd" d="M191.156 267.101C190.443 267.087 189.876 266.499 189.888 265.785C189.903 265.07 190.494 264.503 191.207 264.516C206.152 264.828 220.037 261.376 231.694 256.363C247.05 249.76 258.489 240.491 263.379 233.566C263.79 232.981 264.595 232.84 265.185 233.252C265.767 233.662 265.907 234.469 265.497 235.055C260.383 242.299 248.533 251.945 232.721 258.746C220.77 263.885 206.519 267.423 191.156 267.101Z" fill="#08090A"/>
<path fill-rule="evenodd" clip-rule="evenodd" d="M198.439 283.338C197.729 283.43 197.08 282.928 196.991 282.219C196.904 281.513 197.406 280.863 198.113 280.775C226.804 277.098 256.121 278.563 256.21 278.569C256.921 278.6 257.475 279.207 257.44 279.922C257.405 280.636 256.803 281.187 256.085 281.152C256.003 281.149 226.887 279.692 198.439 283.338Z" fill="#08090A"/>
<path fill-rule="evenodd" clip-rule="evenodd" d="M131.168 214.201C130.75 214.462 130.202 214.332 129.944 213.914C129.687 213.495 129.814 212.946 130.234 212.686C141.197 205.906 159.726 204.171 159.78 204.167C160.268 204.122 160.704 204.48 160.75 204.969C160.796 205.46 160.437 205.894 159.949 205.938C159.895 205.945 141.777 207.642 131.168 214.201Z" fill="#08090A"/>
<path fill-rule="evenodd" clip-rule="evenodd" d="M326.008 203.521C326.489 203.717 326.717 204.265 326.52 204.746C326.323 205.227 325.773 205.455 325.291 205.259C312.812 200.133 291.46 202.571 291.396 202.578C290.881 202.636 290.412 202.263 290.356 201.747C290.302 201.229 290.674 200.763 291.192 200.707C291.253 200.699 313.072 198.206 326.008 203.521Z" fill="#08090A"/>
<path fill-rule="evenodd" clip-rule="evenodd" d="M144.563 331.321C159.77 315.687 178.882 309.835 200.101 314.577C206.913 316.097 213.574 318.628 219.755 321.859C222.375 323.231 225.246 324.857 227.645 326.61C227.965 326.846 228.196 327.102 228.401 327.439L238.801 344.768C239.544 346.007 239.247 347.584 238.105 348.465C237.264 349.114 236.284 349.715 235.379 350.255C232.744 351.828 229.954 353.217 227.169 354.495C215.244 359.953 202.03 363.959 189.358 367.218C176.904 370.421 157.582 373.571 147.956 362.4C144.837 358.778 143.292 354.279 142.725 349.587C142.049 344.04 142.702 338.175 143.818 332.725C143.933 332.172 144.167 331.723 144.563 331.321Z" fill="#08090A"/>
<path fill-rule="evenodd" clip-rule="evenodd" d="M146.591 333.295C141.087 360.167 152.556 373.758 188.651 364.478C224.747 355.202 236.373 346.226 236.373 346.226L225.972 328.897C225.972 328.897 182.078 296.818 146.591 333.295Z" fill="#1B1B1B"/>
<path fill-rule="evenodd" clip-rule="evenodd" d="M158.256 344.342C158.241 343.564 158.859 342.92 159.639 342.904C160.416 342.889 161.061 343.507 161.076 344.287C161.226 351.812 163.264 357.212 166.5 360.78C170.097 364.751 175.244 366.494 180.939 366.4C181.718 366.389 182.362 367.009 182.371 367.789C182.384 368.567 181.761 369.207 180.984 369.221C174.499 369.326 168.601 367.296 164.407 362.67C160.734 358.617 158.421 352.605 158.256 344.342Z" fill="#08090A"/>
<path fill-rule="evenodd" clip-rule="evenodd" d="M210.218 313.897C240.46 292.953 301.732 261.354 339.114 268.247C353.556 270.909 366.882 279.232 371.162 293.964C374.03 303.843 371.932 314.143 366.687 322.837C360.087 333.792 349.144 341.557 337.557 346.537C309.826 358.443 279.705 362.572 249.858 357.816C240.796 356.373 231.807 354.135 223.176 351.012C219.726 349.765 216.229 348.412 212.981 346.708C211.817 346.102 211.09 345.011 210.972 343.705L208.609 317.338C208.488 315.957 209.08 314.685 210.218 313.897Z" fill="#08090A"/>
<path fill-rule="evenodd" clip-rule="evenodd" d="M210.755 314.671C240.838 293.84 301.916 262.345 338.942 269.174C353.017 271.769 366.077 279.843 370.254 294.228C373.053 303.854 370.985 313.882 365.878 322.352C359.382 333.13 348.58 340.77 337.182 345.666C309.56 357.531 279.712 361.618 250.005 356.883C241.022 355.454 232.053 353.22 223.495 350.122C220.184 348.925 216.55 347.511 213.419 345.874C212.542 345.414 212.001 344.604 211.911 343.619L209.55 317.251C209.455 316.208 209.896 315.27 210.755 314.671Z" fill="#08090A"/>
<path fill-rule="evenodd" clip-rule="evenodd" d="M212.367 316.999C244.671 294.629 303.761 265.567 338.428 271.959C377.994 279.254 380.31 324.062 336.063 343.064C269.096 371.83 214.731 343.367 214.731 343.367L212.367 316.999Z" fill="#CFCFCF"/>
<path fill-rule="evenodd" clip-rule="evenodd" d="M223.031 309.994C256.468 289.071 307.298 266.217 338.429 271.959C347.457 273.622 354.541 277.245 359.582 282.066C317.995 259.894 244.937 300.939 232.051 309.038C227.949 311.172 225.057 311.025 223.031 309.994Z" fill="white"/>
<path fill-rule="evenodd" clip-rule="evenodd" d="M364.819 288.689C374.61 305.561 365.991 330.213 336.064 343.064C309.964 354.279 285.782 356.792 265.981 355.691C262.29 344.079 267.648 331.779 289.799 327.691C327.864 328.207 352.016 305.54 364.819 288.689Z" fill="#9F9F9F"/>
<path fill-rule="evenodd" clip-rule="evenodd" d="M164.407 362.67C162.085 360.107 160.307 356.763 159.269 352.558C154.741 352.077 150.225 351.465 145.746 350.7C147.663 361.821 155.593 367.941 170.923 367.348C168.479 366.276 166.275 364.733 164.407 362.67Z" fill="white"/>
<path fill-rule="evenodd" clip-rule="evenodd" d="M211.834 305.386L248.985 315.771C250.302 316.14 251.154 317.361 251.046 318.725L248.649 348.683C248.525 350.199 247.234 351.348 245.713 351.287L205.365 349.692C204.5 349.655 203.763 349.277 203.236 348.589C202.706 347.903 202.526 347.096 202.714 346.248C204.392 338.687 205.82 330.878 206.905 323.217C207.599 318.306 208.238 313.072 208.238 308.113C208.238 307.195 208.63 306.408 209.359 305.857C210.09 305.303 210.953 305.138 211.834 305.386Z" fill="#08090A"/>
<path fill-rule="evenodd" clip-rule="evenodd" d="M211.072 308.113C211.072 321.693 205.478 346.86 205.478 346.86L245.824 348.46L248.224 318.498L211.072 308.113Z" fill="#E29675"/>
<path fill-rule="evenodd" clip-rule="evenodd" d="M245.037 314.89C249.683 312.021 255.255 309.777 260.418 308.032C267.039 305.796 273.964 304.107 280.874 303.09C292.432 301.388 306.928 301.207 317.284 307.377C328.108 313.823 332.411 327.838 332.034 339.797C331.615 353.217 325.35 367.16 312.006 371.994C301.27 375.88 286.893 372.948 276.322 369.647C267.501 366.895 258.476 363.059 250.423 358.515C247.585 356.912 244.613 355.098 242.079 353.047C240.299 351.6 237.888 349.42 238.347 346.86L243.74 316.8C243.884 315.979 244.328 315.328 245.037 314.89Z" fill="#08090A"/>
<path fill-rule="evenodd" clip-rule="evenodd" d="M246.525 317.3C260.108 308.91 297.059 298.622 315.836 309.808C334.61 320.993 334.211 360.945 311.041 369.332C287.872 377.722 240.253 352.254 241.131 347.358L246.525 317.3Z" fill="#1B1B1B"/>
<path fill-rule="evenodd" clip-rule="evenodd" d="M238.909 314.33C239.031 316.985 239.096 319.642 239.007 322.297C238.659 332.477 235.883 340.883 230.91 349.715C230.348 350.716 229.435 351.363 228.304 351.571C225.101 352.161 221.863 352.576 218.627 352.963C210.514 353.93 202.354 354.505 194.187 354.744C170.218 355.445 145.369 353.227 122.377 346.177C111.315 342.784 100.544 336.904 93.7718 327.254C88.4168 319.622 86.2931 310.559 87.6652 301.338C90.134 284.784 103.217 271.017 119.639 267.754C154.902 260.752 208.276 292.709 237.185 311.33C238.237 312.009 238.855 313.081 238.909 314.33Z" fill="#08090A"/>
<path fill-rule="evenodd" clip-rule="evenodd" d="M237.967 314.371C238.088 317.002 238.152 319.633 238.063 322.265C237.724 332.305 235.005 340.516 230.09 349.248C229.662 350.005 228.989 350.488 228.134 350.646C224.973 351.225 221.704 351.645 218.518 352.025C210.439 352.986 202.289 353.564 194.159 353.801C170.341 354.497 145.489 352.277 122.653 345.273C111.801 341.945 101.191 336.184 94.545 326.713C89.3271 319.276 87.2609 310.457 88.6 301.479C91.0064 285.32 103.791 271.867 119.823 268.682C154.67 261.759 207.804 293.529 236.672 312.121C237.467 312.634 237.923 313.427 237.967 314.371Z" fill="#08090A"/>
<path fill-rule="evenodd" clip-rule="evenodd" d="M235.141 314.502C201.959 293.131 152.55 265.067 120.373 271.456C88.2006 277.851 73.6669 327.287 123.484 342.565C173.296 357.846 227.62 347.861 227.62 347.861C235.12 334.544 235.629 325.223 235.141 314.502Z" fill="#CFCFCF"/>
<path fill-rule="evenodd" clip-rule="evenodd" d="M235.142 314.502C201.96 293.131 152.551 265.067 120.375 271.457C114.83 272.56 109.812 274.939 105.553 278.201C117.02 274.327 135.036 273.116 152.771 277.815C174.51 283.579 223.036 313.415 235.26 321.061C235.301 318.901 235.243 316.732 235.142 314.502Z" fill="white"/>
<path fill-rule="evenodd" clip-rule="evenodd" d="M94.1964 292.496C86.2979 309.913 92.2025 332.973 123.484 342.565C173.296 357.846 227.621 347.861 227.621 347.861C228.741 345.872 229.703 343.976 230.532 342.15C216.774 341.075 198.673 338.869 176.742 334.483C133.8 325.895 101.243 311.229 94.1964 292.496Z" fill="#9F9F9F"/>
<path fill-rule="evenodd" clip-rule="evenodd" d="M260.536 321.801C264.41 321.028 277.292 319.085 287.215 321.041C304.548 324.464 305.407 349.928 284.106 352.161C267.741 353.88 252.947 345.77 252.947 345.77L260.536 321.801Z" fill="#070707"/>
<path fill-rule="evenodd" clip-rule="evenodd" d="M301.663 305.572C300.916 305.34 300.503 304.548 300.734 303.803C300.964 303.057 301.759 302.642 302.506 302.873C312.103 305.89 317.664 315.592 319.401 326.862C320.286 332.601 320.18 338.766 319.108 344.656C318.035 350.568 315.985 356.197 312.992 360.839C307.935 368.68 300.219 373.74 289.967 372.74C289.191 372.667 288.621 371.981 288.695 371.202C288.77 370.429 289.454 369.857 290.232 369.933C299.27 370.815 306.105 366.302 310.613 359.312C313.41 354.978 315.323 349.705 316.335 344.158C317.349 338.591 317.445 332.746 316.602 327.295C315.016 317.023 310.092 308.22 301.663 305.572Z" fill="#08090A"/>
<path fill-rule="evenodd" clip-rule="evenodd" d="M254.081 336.171C253.794 337.926 257.669 341.05 257.356 342.966C256.11 350.657 253.366 350.203 247.953 352.729C244.415 354.38 240.172 353.909 237.247 351.261C233.007 347.42 233.828 341.665 236.844 337.357C238.183 335.444 239.526 333.312 239.315 330.886C239.215 329.728 238.905 328.52 238.705 327.367C238.369 325.453 238.237 323.607 238.334 321.659C238.456 319.206 239.336 316.903 241.249 315.292C244.128 312.859 248.145 312.959 251.555 314.023C255.82 315.353 260.324 319.045 260.585 323.841C260.623 324.5 254.557 333.264 254.081 336.171Z" fill="#08090A"/>
<path fill-rule="evenodd" clip-rule="evenodd" d="M260.737 323.399C251.949 314.211 241.562 313.812 241.162 321.801C240.76 329.792 244.758 330.991 239.165 338.98C233.569 346.969 240.76 352.963 246.753 350.166C252.746 347.367 263.135 348.168 260.737 323.399Z" fill="white"/>
<path fill-rule="evenodd" clip-rule="evenodd" d="M258.795 321.535C255.754 318.848 252.627 317.172 249.867 316.492C247.353 317.026 245.668 318.868 245.513 321.989C245.114 329.979 249.109 331.18 243.515 339.168C239.674 344.656 241.865 349.203 245.553 350.604C245.956 350.492 246.34 350.305 246.753 350.165C252.348 348.297 256.568 348.016 259.637 343.015C263.047 337.45 264.388 326.469 258.795 321.535Z" fill="#070707"/>
<path fill-rule="evenodd" clip-rule="evenodd" d="M268.776 319.782C269.01 319.038 269.799 318.622 270.543 318.852C271.29 319.085 271.707 319.876 271.473 320.623C266.735 335.826 266.342 349.17 266.342 349.21C266.318 349.988 265.666 350.598 264.888 350.576C264.106 350.551 263.495 349.9 263.522 349.122C263.522 349.08 263.925 335.338 268.776 319.782Z" fill="white"/>
<path fill-rule="evenodd" clip-rule="evenodd" d="M277.963 320.98C278.196 320.234 278.989 319.819 279.732 320.051C280.478 320.284 280.892 321.077 280.658 321.819C275.924 337.026 275.531 350.37 275.531 350.407C275.504 351.185 274.853 351.797 274.072 351.773C273.296 351.751 272.685 351.096 272.71 350.317C272.71 350.279 273.114 336.539 277.963 320.98Z" fill="white"/>
<path fill-rule="evenodd" clip-rule="evenodd" d="M288.146 322.18C288.381 321.435 289.176 321.019 289.921 321.249C290.668 321.481 291.08 322.273 290.848 323.02C286.108 338.224 285.716 351.568 285.714 351.606C285.691 352.385 285.038 352.995 284.261 352.972C283.483 352.948 282.872 352.296 282.895 351.518C282.899 351.476 283.302 337.736 288.146 322.18Z" fill="white"/>
<path fill-rule="evenodd" clip-rule="evenodd" d="M319.402 326.862C320.287 332.602 320.18 338.767 319.108 344.657C318.803 346.338 318.419 347.993 317.958 349.612C317.644 350.716 317.29 351.8 316.906 352.863C315.859 355.722 314.553 358.418 312.993 360.839C310.084 365.351 306.293 368.945 301.647 370.986C305.049 370.872 308.225 370.352 311.042 369.332C319.859 366.141 325.378 358.375 327.802 349.368C328.09 348.287 328.333 347.193 328.535 346.084C331.071 332.119 326.61 316.228 315.836 309.808C314.029 308.734 312.054 307.855 309.945 307.155C315.05 311.748 318.178 318.916 319.402 326.862Z" fill="white"/>
<path fill-rule="evenodd" clip-rule="evenodd" d="M283.018 115.144C285.684 111.487 289.166 108.197 293.241 106.164C296.792 104.39 300.887 103.571 304.771 104.68C310.191 106.225 313.354 110.885 314.906 116.049C315.671 118.595 315.912 121.234 315.634 123.876C314.875 131.046 310.433 137.322 304.888 141.701C298.882 146.449 291.24 149.318 283.566 149.498C280.513 149.571 277.451 148.814 275.508 146.28C272.014 141.721 274.295 133.999 276.111 129.176C277.344 125.895 278.861 122.68 280.504 119.584C281.263 118.15 282.06 116.695 282.909 115.31C282.943 115.25 282.975 115.202 283.018 115.144Z" fill="#08090A"/>
<path fill-rule="evenodd" clip-rule="evenodd" d="M285.003 116.591C293.804 104.522 308.149 102.097 312.549 116.755C316.956 131.419 300.894 146.632 283.51 147.041C266.125 147.452 285.003 116.591 285.003 116.591Z" fill="#E29675"/>
<path fill-rule="evenodd" clip-rule="evenodd" d="M307.391 122.426C305.85 117.743 303.034 116.147 297.864 118.533C294.416 120.125 292.217 123.024 290.436 126.271C289.758 127.508 289.225 128.221 289.408 129.643C293.252 129.028 296.928 130.079 295.472 135.24C295.001 136.899 292.724 139.343 291.051 139.042C291.89 137.882 293.731 137.461 294.117 134.933C294.875 129.953 290.193 131.359 287.376 132.655C286.811 128.796 285.702 129.168 287.933 124.929C294.991 111.53 309.826 115.082 307.391 122.426Z" fill="#08090A"/>
<path fill-rule="evenodd" clip-rule="evenodd" d="M293.982 137.609C299.659 137.625 305.742 130.469 307.269 122.077C305.703 117.664 302.901 116.207 297.864 118.532C294.415 120.125 292.217 123.023 290.436 126.27C289.758 127.508 289.225 128.22 289.408 129.642C293.251 129.028 296.928 130.078 295.472 135.24C295.26 135.977 294.693 136.871 293.982 137.609Z" fill="#C57B68"/>
<path fill-rule="evenodd" clip-rule="evenodd" d="M172.565 115.144C169.899 111.487 166.412 108.197 162.342 106.164C158.789 104.39 154.695 103.571 150.81 104.68C145.392 106.225 142.229 110.885 140.676 116.049C139.912 118.595 139.667 121.234 139.948 123.876C140.708 131.046 145.15 137.322 150.692 141.701C156.698 146.449 164.345 149.318 172.012 149.498C175.069 149.571 178.13 148.814 180.072 146.28C183.567 141.721 181.287 133.999 179.47 129.176C178.235 125.895 176.719 122.68 175.08 119.584C174.318 118.15 173.522 116.695 172.674 115.31C172.64 115.25 172.608 115.202 172.565 115.144Z" fill="#08090A"/>
<path fill-rule="evenodd" clip-rule="evenodd" d="M170.58 116.591C161.778 104.522 147.432 102.097 143.029 116.755C138.627 131.419 154.689 146.632 172.072 147.041C189.456 147.452 170.58 116.591 170.58 116.591Z" fill="#E29675"/>
<path fill-rule="evenodd" clip-rule="evenodd" d="M148.192 122.426C149.735 117.743 152.547 116.147 157.717 118.533C161.166 120.125 163.364 123.024 165.145 126.271C165.822 127.508 166.358 128.221 166.172 129.643C162.329 129.028 158.651 130.079 160.111 135.24C160.581 136.899 162.856 139.343 164.528 139.042C163.691 137.882 161.846 137.461 161.462 134.933C160.706 129.953 165.386 131.359 168.205 132.655C168.773 128.796 169.877 129.168 167.646 124.929C160.589 111.53 145.756 115.082 148.192 122.426Z" fill="#08090A"/>
<path fill-rule="evenodd" clip-rule="evenodd" d="M161.599 137.609C155.924 137.625 149.839 130.469 148.312 122.077C149.879 117.664 152.678 116.207 157.717 118.532C161.166 120.125 163.364 123.023 165.145 126.27C165.822 127.508 166.358 128.22 166.172 129.642C162.329 129.028 158.651 130.078 160.111 135.24C160.32 135.977 160.886 136.871 161.599 137.609Z" fill="#C57B68"/>
<path fill-rule="evenodd" clip-rule="evenodd" d="M165.026 75.2947C174.137 34.0385 210.819 22.9258 248.62 29.9822C262.987 32.6615 276.531 38.9724 285.793 50.5686C288.395 53.8294 290.615 57.4683 292.237 61.3153C292.881 62.8404 293.551 64.6422 293.896 66.2726C293.929 66.4292 293.947 66.5675 293.955 66.7267C294.25 73.0143 294.207 79.4709 294.061 85.7562C293.756 99.3242 292.734 113.1 290.497 126.487C288.543 138.167 285.465 150.824 280.019 161.393C272.736 175.527 260.401 185.152 245.051 189.116C227.839 193.564 208.276 190.396 193.471 180.544C188.83 177.455 184.684 173.795 181.178 169.451C172.715 158.971 169.081 145.902 167.177 132.792C165.951 124.36 165.411 115.774 165.13 107.262C164.782 96.8101 164.827 86.3229 164.961 75.8687C164.962 75.6655 164.984 75.4917 165.026 75.2947Z" fill="#08090A"/>
<path fill-rule="evenodd" clip-rule="evenodd" d="M167.795 75.9053C167.074 132.264 169.945 161.487 195.04 178.188C220.137 194.888 261.01 192.104 277.504 160.098C293.997 128.089 291.126 66.8587 291.126 66.8587C291.126 66.8587 285.391 39.7238 248.104 32.7642C210.816 25.8057 176.397 36.9404 167.795 75.9053Z" fill="#E29675"/>
<path fill-rule="evenodd" clip-rule="evenodd" d="M167.699 90.3665C167.703 92.555 167.715 94.6982 167.738 96.7949C180.887 83.3077 199.015 75.1203 199.015 75.1203C199.015 75.1203 199.616 84.3077 210.801 83.3077C221.987 82.3101 235.768 76.1179 235.768 76.1179C235.768 76.1179 237.367 80.3125 246.755 80.3125C256.143 80.3125 266.332 75.3198 267.928 75.5206C269.525 75.7176 288.701 97.2906 288.701 94.495C288.701 92.1792 285.414 58.6355 277.704 46.2621C275.904 44.6856 273.876 43.1397 271.586 41.6709C257.877 40.1041 174.392 37.5301 167.699 90.3665Z" fill="#C57B68"/>
<path fill-rule="evenodd" clip-rule="evenodd" d="M288.731 123.635C287.895 107.664 282.966 95.4852 278.286 84.3052C273.886 73.8045 270.853 64.4458 270.853 64.4458C270.853 64.4458 265.067 75.5279 248.214 76.2452C231.367 76.9624 250.368 64.414 250.368 64.414C250.368 64.414 206.267 83.774 205.906 75.1693C205.55 66.567 210.928 65.8485 210.928 65.8485C210.928 65.8485 178.76 74.8131 174.458 89.8707C170.157 104.93 168.527 122.099 168.527 122.099C168.527 122.099 148.788 106.324 147.355 88.3958C145.923 70.4691 158.993 73.4091 158.993 73.4091C158.993 73.4091 136.044 70.1815 144.293 58.7101C152.537 47.2351 175.486 37.1959 175.486 37.1959C175.486 37.1959 157.914 27.5165 163.294 23.5728C168.671 19.629 207.392 8.87129 219.583 11.3817C231.776 13.8921 215.998 4.57016 225.32 2.05974C234.642 -0.450684 268.704 24.6487 268.704 24.6487C268.704 24.6487 258.42 11.6339 265.116 10.394C271.817 9.15283 276.836 26.8396 276.836 26.8396C276.836 26.8396 294.158 25.0073 296.666 30.3855C299.179 35.7626 285.611 36.1261 285.611 36.1261C285.611 36.1261 301.883 45.7308 308.694 64.0149C315.507 82.3003 288.731 123.635 288.731 123.635Z" fill="#08090A"/>
<path fill-rule="evenodd" clip-rule="evenodd" d="M174.568 22.9791C172.098 23.8726 170.28 24.6768 169.41 25.2912C164.503 28.7674 180.536 37.3023 180.536 37.3023C180.536 37.3023 176.675 40.1029 171.306 43.0099C211.469 53.606 255.626 56.8986 298.084 53.0552C294.788 47.901 290.833 43.9071 287.558 41.12C250.629 45.3759 207.861 39.3391 174.568 22.9791Z" fill="#262729"/>
<path fill-rule="evenodd" clip-rule="evenodd" d="M214.596 132.646C223.915 136.814 232.373 133.166 232.373 134.042C232.373 140.813 227.64 144.45 221.72 143.889C215.669 143.312 210.923 135.871 214.596 132.646Z" fill="#C57B68"/>
<path fill-rule="evenodd" clip-rule="evenodd" d="M252.79 102.313C249.088 101.71 245.378 105.606 244.497 111.01C243.618 116.415 245.904 121.287 249.601 121.888C253.301 122.491 257.013 118.595 257.895 113.191C258.771 107.785 256.485 102.914 252.79 102.313Z" fill="#08090A"/>
<path fill-rule="evenodd" clip-rule="evenodd" d="M255.941 103.593C254.555 103.366 253.245 104.307 253.019 105.694C252.793 107.08 253.734 108.388 255.119 108.613C256.507 108.837 257.815 107.899 258.042 106.511C258.267 105.124 257.327 103.818 255.941 103.593Z" fill="white"/>
<path fill-rule="evenodd" clip-rule="evenodd" d="M262.173 99.7138C259.447 103.476 247.663 101.943 246.309 96.9145C243.507 86.5178 252.038 92.6121 254.464 94.207C258.89 97.1152 264.095 97.0577 262.173 99.7138Z" fill="#08090A"/>
<path fill-rule="evenodd" clip-rule="evenodd" d="M199.983 100.798C203.726 100.606 206.988 104.884 207.27 110.354C207.553 115.822 204.745 120.412 201.005 120.605C197.263 120.798 194 116.521 193.719 111.052C193.436 105.582 196.242 100.992 199.983 100.798Z" fill="#08090A"/>
<path fill-rule="evenodd" clip-rule="evenodd" d="M203.661 102.492C205.066 102.419 206.261 103.5 206.334 104.901C206.406 106.304 205.327 107.501 203.924 107.572C202.523 107.644 201.326 106.566 201.253 105.163C201.181 103.759 202.257 102.563 203.661 102.492Z" fill="white"/>
<path fill-rule="evenodd" clip-rule="evenodd" d="M192.429 96.2759C194.753 100.293 206.635 99.9748 208.494 95.1094C212.345 85.053 203.238 90.2452 200.657 91.5843C195.955 94.0249 190.786 93.435 192.429 96.2759Z" fill="#08090A"/>
<path fill-rule="evenodd" clip-rule="evenodd" d="M207.391 156.399C206.664 156.686 205.843 156.331 205.555 155.603C205.267 154.877 205.626 154.054 206.351 153.767C213.686 150.866 220.805 150.095 226.823 150.721C234.002 151.467 239.681 154.238 242.411 157.812C242.887 158.431 242.767 159.319 242.145 159.79C241.527 160.264 240.64 160.145 240.165 159.525C237.88 156.534 232.922 154.194 226.537 153.53C220.932 152.945 214.281 153.675 207.391 156.399Z" fill="#08090A"/>
<path fill-rule="evenodd" clip-rule="evenodd" d="M215.191 136.105C214.639 135.552 214.639 134.656 215.191 134.103C215.745 133.551 216.642 133.551 217.196 134.103C218.422 135.331 220.579 135.93 222.819 136.07C225.604 136.243 228.401 135.721 229.75 134.821C230.397 134.389 231.278 134.565 231.709 135.214C232.143 135.866 231.969 136.744 231.32 137.178C229.51 138.383 226.009 139.099 222.655 138.89C219.791 138.71 216.956 137.87 215.191 136.105Z" fill="#08090A"/>
<path fill-rule="evenodd" clip-rule="evenodd" d="M216.194 160.01C225.513 164.179 233.973 160.533 233.973 161.407C233.973 168.178 229.241 171.816 223.318 171.253C217.266 170.679 212.525 163.237 216.194 160.01Z" fill="#C57B68"/>
<path fill-rule="evenodd" clip-rule="evenodd" d="M190.269 122.077C189.652 122.487 188.82 122.32 188.41 121.706C187.997 121.089 188.165 120.256 188.783 119.845C190.276 118.849 192.103 118.455 193.978 118.455C196.204 118.455 198.536 119.02 200.442 119.774C202.442 120.57 204.041 121.636 204.645 122.54L204.646 122.544L204.649 122.54C204.911 122.931 205.048 123.339 205.048 123.757C205.048 124.498 204.448 125.099 203.707 125.099C203.039 125.099 202.486 124.611 202.382 123.973C202.013 123.489 200.915 122.837 199.455 122.259C197.841 121.616 195.859 121.135 193.978 121.135C192.59 121.135 191.281 121.402 190.269 122.077Z" fill="#08090A"/>
<path fill-rule="evenodd" clip-rule="evenodd" d="M262.775 120.644C263.39 121.055 263.559 121.888 263.149 122.503C262.736 123.12 261.904 123.287 261.288 122.877C260.276 122.201 258.966 121.937 257.579 121.937C255.694 121.937 253.715 122.416 252.101 123.059C250.644 123.637 249.546 124.289 249.174 124.773C249.071 125.41 248.514 125.897 247.85 125.897C247.11 125.897 246.511 125.298 246.511 124.557C246.511 124.139 246.648 123.73 246.91 123.339L246.912 123.343L246.913 123.339C247.517 122.436 249.115 121.369 251.117 120.576C253.019 119.82 255.35 119.254 257.579 119.254C259.456 119.254 261.276 119.648 262.775 120.644Z" fill="#08090A"/>
<path fill-rule="evenodd" clip-rule="evenodd" d="M277.809 181.976C284.437 190.403 291.067 198.829 297.398 207.483C301.632 213.268 305.739 219.148 309.579 225.205C313.102 230.77 316.428 236.497 319.189 242.483C323.856 252.594 323.34 264.947 317.229 274.347C314.261 278.916 310.237 282.485 305.297 284.784C299.294 287.578 292.527 288.221 286.015 287.317C276.801 286.037 270.587 276.478 266.711 268.861C264.09 263.709 261.953 258.308 260.033 252.858C257.947 246.93 256.124 240.912 254.426 234.864C252.353 227.496 250.472 220.076 248.596 212.656C247.034 206.476 245.51 200.282 243.709 194.162C242.638 190.505 241.525 186.773 240.998 182.987C240.57 179.919 240.597 176.804 241.828 173.906C243.254 170.554 245.957 168.226 248.978 166.327C253.028 163.783 257.579 161.876 261.974 160.011C265.804 158.386 269.532 156.513 273.223 154.59C275.776 153.259 278.312 151.894 280.832 150.503C279.339 149.331 278.27 147.714 277.598 145.89C276.631 143.27 276.449 140.205 279.278 138.734L285.669 133.686C285.723 133.644 285.773 133.614 285.837 133.583C285.866 133.566 285.906 133.546 285.941 133.532C291.423 131.019 297.318 128.766 302.454 133.391C304.405 135.148 305.349 137.654 306.02 140.126C306.661 142.494 307.097 144.911 307.749 147.273C308.94 151.594 306.293 155.987 303.712 159.249C300.638 163.138 296.843 166.587 293.07 169.79C290.225 172.21 287.295 174.526 284.336 176.81C282.138 178.505 279.95 180.215 277.809 181.976Z" fill="#08090A"/>
<path fill-rule="evenodd" clip-rule="evenodd" d="M282.668 150.564C279.684 152.229 276.676 153.853 273.658 155.427C269.961 157.354 266.18 159.252 262.338 160.879C258.075 162.688 253.402 164.661 249.479 167.126C246.631 168.916 244.041 171.11 242.697 174.274C241.532 177.011 241.527 179.96 241.932 182.857C242.445 186.535 243.569 190.338 244.615 193.898C246.414 200.015 247.948 206.243 249.51 212.425C251.386 219.838 253.264 227.25 255.335 234.608C257.027 240.632 258.845 246.64 260.925 252.544C262.823 257.936 264.958 263.335 267.553 268.433C271.255 275.71 277.299 285.153 286.145 286.381C298.121 288.045 309.675 284.243 316.439 273.833C322.395 264.673 322.88 252.725 318.331 242.877C315.598 236.951 312.273 231.221 308.781 225.709C304.958 219.674 300.856 213.802 296.637 208.038C290.127 199.142 283.308 190.497 276.496 181.835C278.872 179.857 281.332 177.935 283.761 176.06C286.702 173.788 289.625 171.48 292.459 169.07C296.138 165.946 299.976 162.453 302.975 158.664C305.336 155.676 307.935 151.502 306.838 147.525C306.187 145.157 305.749 142.739 305.111 140.373C304.488 138.095 303.623 135.714 301.821 134.093C297.031 129.781 291.45 132.044 286.335 134.389C286.305 134.403 286.282 134.412 286.252 134.426L279.79 139.531C277.374 140.732 277.668 143.349 278.485 145.564C279.323 147.842 280.752 149.578 282.668 150.564Z" fill="#08090A"/>
<path fill-rule="evenodd" clip-rule="evenodd" d="M287.511 136.964L280.748 142.767C280.748 142.767 280.208 148.659 286.697 148.659C293.187 148.659 294.21 147.197 294.21 147.197C294.21 147.197 275.34 158.44 263.446 163.486C242.777 172.254 241.949 174.783 247.332 193.099C255.326 220.309 265.878 280.708 286.535 283.577C312.49 287.181 324.412 262.808 315.764 244.064C306.516 224.036 286.754 199.474 272.585 181.44C272.585 181.44 276.085 178.408 282.03 173.819C291.842 166.25 305.906 154.787 304.11 148.278C302.695 143.156 302.292 138.326 299.929 136.196C296.748 133.332 293.148 134.38 287.511 136.964Z" fill="#E29675"/>
<path fill-rule="evenodd" clip-rule="evenodd" d="M293.983 143.928C294.535 143.376 295.434 143.376 295.985 143.928C296.537 144.481 296.537 145.377 295.985 145.93C290.282 151.629 281.498 153.303 281.472 153.308C280.707 153.457 278.365 154.457 278.216 153.688C278.066 152.922 281.162 152.38 281.931 152.232C281.939 152.229 282.223 150.287 284.088 149.665C286.866 148.738 290.939 146.975 293.983 143.928Z" fill="#08090A"/>
<path fill-rule="evenodd" clip-rule="evenodd" d="M278.954 175.766C279.571 175.296 280.457 175.417 280.925 176.036C281.398 176.658 281.274 177.54 280.655 178.012C278.041 179.996 275.308 182.27 273.318 184.146C271.824 185.552 270.832 186.544 270.832 186.676C270.832 187.459 270.2 188.089 269.418 188.089C268.636 188.089 268 187.459 268 186.676C268 185.69 269.357 184.001 271.378 182.09C273.412 180.174 276.237 177.829 278.954 175.766Z" fill="#08090A"/>
<path fill-rule="evenodd" clip-rule="evenodd" d="M293.289 274.077C284.642 266.031 276.737 252.856 270.33 239.136C267.595 233.276 265.134 227.319 263.001 221.62C259.57 212.428 256.998 203.911 255.542 197.564C255.2 196.067 254.871 194.664 254.57 193.343C254.314 192.238 254.073 191.192 253.85 190.197C253.554 188.846 253.285 187.593 253.058 186.423C252.865 185.405 252.701 184.451 252.576 183.548C251.336 174.703 253.651 170.909 264.39 163.08C264.069 163.22 263.756 163.354 263.446 163.486C245.761 170.988 242.603 173.922 245.429 186.084C245.631 186.95 245.864 187.865 246.123 188.829C246.476 190.151 246.883 191.57 247.332 193.099C247.485 193.614 247.636 194.141 247.79 194.679C248.046 195.585 248.307 196.522 248.571 197.489C255.253 221.997 263.852 265.148 278.346 279.157C279.165 279.946 280.005 280.65 280.864 281.246C282.668 282.498 284.557 283.301 286.535 283.577C293.231 284.508 298.991 283.577 303.707 281.358C303.816 281.307 303.922 281.257 304.027 281.205C304.11 281.163 304.197 281.121 304.278 281.08C304.184 281.05 304.088 281.016 303.991 280.983C303.078 280.661 302.169 280.273 301.262 279.814C299.437 278.896 297.632 277.708 295.854 276.295C294.991 275.607 294.137 274.868 293.289 274.077Z" fill="#C57B68"/>
<path fill-rule="evenodd" clip-rule="evenodd" d="M286.795 143.554C285.72 143.036 285.021 141.948 284.757 140.108C284.724 139.883 284.697 139.644 284.678 139.394L280.747 142.767C280.747 142.767 280.518 145.261 282.147 147.006C282.295 147.166 282.46 147.319 282.643 147.463C283.285 147.974 284.145 148.374 285.289 148.556C285.714 148.624 286.185 148.659 286.697 148.659C286.706 148.659 286.71 148.659 286.722 148.659C288.394 147.936 290.232 146.968 291.932 145.697C292.647 145.162 293.338 144.575 293.983 143.928C294.535 143.376 295.434 143.376 295.984 143.928C296.047 143.993 296.103 144.061 296.155 144.132C296.188 144.184 296.218 144.238 296.248 144.294C296.331 144.19 296.404 144.086 296.473 143.988C297.623 142.334 297.314 141.308 293.891 142.632C290.822 143.821 288.394 144.321 286.795 143.554Z" fill="#C57B68"/>
<path fill-rule="evenodd" clip-rule="evenodd" d="M175.247 181.976C173.102 180.215 170.914 178.505 168.717 176.81C165.76 174.526 162.828 172.21 159.982 169.79C156.212 166.587 152.415 163.138 149.34 159.249C146.759 155.987 144.113 151.594 145.305 147.273C145.958 144.911 146.393 142.494 147.034 140.126C147.708 137.654 148.649 135.148 150.602 133.391C155.736 128.766 161.63 131.019 167.113 133.532C167.149 133.546 167.185 133.566 167.219 133.583C169.288 134.609 171.774 137.691 172.933 139.634C175.244 143.51 175.8 147.781 172.238 150.512C174.753 151.901 177.282 153.261 179.832 154.59C183.521 156.513 187.249 158.386 191.082 160.011C195.476 161.876 200.027 163.783 204.076 166.327C207.096 168.226 209.801 170.554 211.227 173.906C212.455 176.804 212.485 179.919 212.054 182.987C211.525 186.773 210.416 190.505 209.344 194.162C207.544 200.282 206.019 206.476 204.458 212.656C202.584 220.076 200.7 227.496 198.629 234.864C196.927 240.912 195.106 246.93 193.018 252.858C191.1 258.308 188.965 263.709 186.341 268.861C182.466 276.478 176.252 286.037 167.037 287.317C160.528 288.221 153.758 287.578 147.759 284.784C142.817 282.485 138.789 278.916 135.823 274.347C129.713 264.947 129.2 252.594 133.862 242.483C136.628 236.497 139.953 230.77 143.475 225.205C147.311 219.148 151.422 213.268 155.653 207.483C161.988 198.829 168.619 190.403 175.247 181.976Z" fill="#08090A"/>
<path fill-rule="evenodd" clip-rule="evenodd" d="M170.386 150.564C173.369 152.229 176.375 153.853 179.397 155.427C183.093 157.354 186.874 159.252 190.715 160.879C194.979 162.688 199.653 164.661 203.576 167.126C206.423 168.916 209.017 171.11 210.358 174.274C211.522 177.011 211.526 179.96 211.122 182.857C210.608 186.535 209.484 190.338 208.439 193.898C206.641 200.015 205.106 206.243 203.543 212.425C201.669 219.838 199.791 227.25 197.72 234.608C196.025 240.632 194.209 246.64 192.13 252.544C190.232 257.936 188.098 263.335 185.504 268.433C181.798 275.71 175.757 285.153 166.909 286.381C154.933 288.045 143.378 284.243 136.615 273.833C130.66 264.673 130.179 252.725 134.722 242.877C137.458 236.951 140.782 231.221 144.273 225.709C148.096 219.674 152.2 213.802 156.419 208.038C162.927 199.142 169.746 190.497 176.56 181.835C174.18 179.857 171.723 177.935 169.293 176.06C166.349 173.788 163.429 171.48 160.595 169.07C156.918 165.946 153.079 162.453 150.08 158.664C147.715 155.676 145.119 151.502 146.213 147.525C146.869 145.157 147.305 142.739 147.945 140.373C148.564 138.095 149.435 135.714 151.232 134.093C156.022 129.781 161.606 132.044 166.72 134.389C166.748 134.403 166.773 134.412 166.801 134.426C169.743 135.889 178.734 146.264 170.386 150.564Z" fill="#08090A"/>
<path fill-rule="evenodd" clip-rule="evenodd" d="M165.542 136.964L170.209 142.666C170.209 142.666 172.843 148.659 166.359 148.659C159.868 148.659 158.842 147.197 158.842 147.197C158.842 147.197 177.714 158.44 189.606 163.486C210.278 172.254 211.102 174.783 205.721 193.099C197.726 220.309 187.175 280.708 166.52 283.577C140.568 287.181 128.64 262.808 137.294 244.064C146.538 224.036 166.3 199.474 180.47 181.44C180.47 181.44 176.968 178.408 171.022 173.819C161.212 166.25 147.147 154.787 148.945 148.278C150.36 143.156 150.761 138.326 153.126 136.196C156.308 133.332 159.905 134.38 165.542 136.964Z" fill="#E29675"/>
<path fill-rule="evenodd" clip-rule="evenodd" d="M172.997 179.21C172.377 178.738 172.254 177.854 172.727 177.236C173.197 176.616 174.081 176.494 174.7 176.966C177.418 179.029 180.241 181.373 182.272 183.29C184.3 185.199 185.651 186.89 185.651 187.874C185.651 188.655 185.018 189.29 184.236 189.29C183.455 189.29 182.82 188.655 182.82 187.874C182.82 187.743 181.827 186.75 180.338 185.346C178.344 183.467 175.608 181.197 172.997 179.21Z" fill="#08090A"/>
<path fill-rule="evenodd" clip-rule="evenodd" d="M168.589 140.811C167.102 143.056 164.626 144.573 161.463 142.832C158.981 141.467 157.195 141.797 156.626 142.723C156.342 143.183 156.362 143.793 156.752 144.414C156.82 144.236 156.927 144.072 157.069 143.928C157.357 143.638 157.745 143.501 158.122 143.515C158.468 143.528 158.808 143.666 159.07 143.928C159.098 143.954 159.122 143.979 159.147 144.003C161.313 146.141 163.981 147.643 166.333 148.659C166.339 148.659 166.349 148.659 166.359 148.659C168.427 148.659 169.571 148.051 170.163 147.219C170.224 147.133 170.28 147.044 170.331 146.953C171.314 145.181 170.209 142.666 170.209 142.666L168.635 140.742C168.62 140.766 168.606 140.788 168.589 140.811Z" fill="#C57B68"/>
<path fill-rule="evenodd" clip-rule="evenodd" d="M157.068 145.931C156.515 145.377 156.515 144.481 157.068 143.928C157.622 143.376 158.517 143.376 159.069 143.928C164.156 149.014 172.099 150.527 172.125 150.533C172.888 150.681 173.39 151.426 173.24 152.19C173.09 152.958 172.346 153.457 171.582 153.308C171.554 153.303 162.767 151.629 157.068 145.931Z" fill="#08090A"/>
<path fill-rule="evenodd" clip-rule="evenodd" d="M176.257 255.595C173.789 259.358 171.066 262.737 168.033 265.486C164.658 268.542 160.898 270.819 156.688 271.984C155.582 272.289 154.445 272.52 153.274 272.665C151.969 272.829 150.68 272.929 149.405 272.972C146.46 273.075 143.598 272.876 140.843 272.45C140.176 272.345 139.519 272.23 138.866 272.1C142.231 277.378 147.477 281.452 154.367 283.116C157.977 283.987 162.039 284.2 166.52 283.577C168.775 283.263 170.908 282.266 172.934 280.698C173.728 280.083 174.509 279.378 175.268 278.595C189.935 263.509 198.49 218.593 205.187 194.95C205.365 194.318 205.544 193.699 205.721 193.098C205.823 192.752 205.921 192.412 206.02 192.076C206.513 190.376 206.945 188.818 207.307 187.382C207.557 186.401 207.771 185.477 207.948 184.603C209.99 174.51 207.072 171.183 193.29 165.079C197.996 169.732 200.712 175.372 201.507 181.896C201.639 182.955 201.714 184.038 201.744 185.144C201.771 186.209 201.752 187.297 201.684 188.401C201.616 189.56 201.497 190.741 201.326 191.947C200.638 196.792 199.13 202.007 196.819 207.549C191.841 219.503 186.083 240.613 176.257 255.595Z" fill="#C57B68"/>
<path d="M227.5 235H221C220.47 235 219.961 234.789 219.586 234.414C219.211 234.039 219 233.53 219 233V219C219 218.47 219.211 217.961 219.586 217.586C219.961 217.211 220.47 217 221 217H235C235.53 217 236.039 217.211 236.414 217.586C236.789 217.961 237 218.47 237 219V225M219 224H237M226 217V235M234 236L237.35 232.716C237.556 232.517 237.719 232.278 237.831 232.015C237.942 231.751 238 231.468 238.001 231.182C238.001 230.895 237.944 230.612 237.833 230.348C237.723 230.084 237.56 229.845 237.355 229.645C236.937 229.236 236.376 229.007 235.792 229.006C235.207 229.005 234.646 229.232 234.226 229.639L234.002 229.859L233.779 229.639C233.361 229.231 232.801 229.002 232.216 229C231.632 228.999 231.071 229.226 230.651 229.633C230.446 229.832 230.282 230.071 230.17 230.334C230.058 230.598 230.001 230.881 230 231.167C229.999 231.454 230.056 231.737 230.167 232.001C230.278 232.265 230.44 232.504 230.645 232.704L234 236Z" stroke="white" stroke-width="2" stroke-linecap="round" stroke-linejoin="round"/>
<defs>
<filter id="filter0_f_57_93" x="0.699997" y="256.925" width="460.549" height="201.323" filterUnits="userSpaceOnUse" color-interpolation-filters="sRGB">
<feFlood flood-opacity="0" result="BackgroundImageFix"/>
<feBlend mode="normal" in="SourceGraphic" in2="BackgroundImageFix" result="shape"/>
<feGaussianBlur stdDeviation="38.15" result="effect1_foregroundBlur_57_93"/>
</filter>
</defs>
</svg>
