<svg width="227" height="35" viewBox="0 0 227 35" fill="none" xmlns="http://www.w3.org/2000/svg">
<path d="M9.46484 34H1.04248C0.920085 34 0.858887 33.9235 0.858887 33.7705L0.950684 1.48096C0.950684 1.35856 1.01188 1.29736 1.13428 1.29736H10.1763C11.9357 1.29736 13.5345 1.72575 14.9727 2.58252C16.3802 3.43929 17.4894 4.5791 18.3003 6.00195C19.1112 7.40951 19.5166 8.93945 19.5166 10.5918C19.5166 11.9382 19.2106 13.1927 18.5986 14.3555C17.9867 15.5182 17.2599 16.4591 16.4185 17.1782C17.3211 18.0809 18.0249 19.1289 18.5298 20.3223C19.0347 21.5156 19.2871 22.7702 19.2871 24.0859C19.2871 25.9066 18.8511 27.5666 17.979 29.0659C17.0916 30.5653 15.9059 31.7663 14.4219 32.6689C12.9378 33.5563 11.2855 34 9.46484 34ZM10.1763 6.87402H6.59619V14.2637H10.1763C11.2625 14.2637 12.1423 13.8812 12.8154 13.1162C13.4886 12.3359 13.8252 11.4945 13.8252 10.5918C13.8252 9.59733 13.4657 8.73291 12.7466 7.99854C12.0275 7.24886 11.1707 6.87402 10.1763 6.87402ZM9.46484 19.9551H6.59619L6.55029 28.2627H9.46484C10.597 28.2627 11.5685 27.8496 12.3794 27.0234C13.1903 26.1973 13.5957 25.2181 13.5957 24.0859C13.5957 22.9538 13.1903 21.9823 12.3794 21.1714C11.5685 20.3605 10.597 19.9551 9.46484 19.9551Z" fill="white"/>
<path d="M31.3584 34.459C29.6908 34.459 28.1532 34.0306 26.7456 33.1738C25.3534 32.3171 24.2288 31.1772 23.3721 29.7544C22.5306 28.3162 22.1099 26.7404 22.1099 25.0269L22.1558 10.1328C22.1558 8.38867 22.5765 6.82048 23.418 5.42822C24.2441 4.02067 25.361 2.89616 26.7686 2.05469C28.1761 1.19792 29.7061 0.769531 31.3584 0.769531C33.0719 0.769531 34.6095 1.19027 35.9712 2.03174C37.3481 2.87321 38.4497 4.00537 39.2759 5.42822C40.1174 6.83577 40.5381 8.40397 40.5381 10.1328L40.584 25.0269C40.584 26.7404 40.1709 28.3086 39.3447 29.7314C38.5033 31.1696 37.3864 32.3171 35.9941 33.1738C34.6019 34.0306 33.0566 34.459 31.3584 34.459ZM31.3584 28.7905C32.307 28.7905 33.1331 28.408 33.8369 27.6431C34.5407 26.8628 34.8926 25.9907 34.8926 25.0269L34.8467 10.1328C34.8467 9.09245 34.5177 8.21273 33.8599 7.49365C33.202 6.77458 32.3682 6.41504 31.3584 6.41504C30.3945 6.41504 29.5684 6.76693 28.8799 7.4707C28.1914 8.17448 27.8472 9.06185 27.8472 10.1328V25.0269C27.8472 26.0519 28.1914 26.9393 28.8799 27.689C29.5684 28.4233 30.3945 28.7905 31.3584 28.7905Z" fill="white"/>
<path d="M49.6489 34H44.3247C44.2023 34 44.1411 33.9235 44.1411 33.7705L44.2329 1.48096C44.2329 1.35856 44.2941 1.29736 44.4165 1.29736H53.9175C55.6157 1.29736 57.1763 1.71045 58.5991 2.53662C60.022 3.36279 61.1541 4.47201 61.9956 5.86426C62.8524 7.25651 63.2808 8.83236 63.2808 10.5918C63.2808 11.7393 63.1048 12.7796 62.7529 13.7129C62.401 14.6462 61.988 15.4341 61.5137 16.0767C61.0547 16.7192 60.634 17.1935 60.2515 17.4995C61.9497 19.3813 62.7988 21.5921 62.7988 24.1318L62.8447 33.7705C62.8447 33.9235 62.7682 34 62.6152 34H57.291C57.1686 34 57.1074 33.9541 57.1074 33.8623V24.1318C57.1074 22.9997 56.7096 22.0205 55.9141 21.1943C55.1185 20.3682 54.1393 19.9551 52.9766 19.9551H49.8784L49.8325 33.7705C49.8325 33.9235 49.7713 34 49.6489 34ZM53.9175 6.91992H49.8784V14.3096H53.9175C54.8813 14.3096 55.7381 13.95 56.4878 13.231C57.2528 12.5119 57.6353 11.6322 57.6353 10.5918C57.6353 9.59733 57.2681 8.74056 56.5337 8.02148C55.7993 7.28711 54.9272 6.91992 53.9175 6.91992Z" fill="white"/>
<path d="M72.3687 34H67.0444C66.8914 34 66.8149 33.9235 66.8149 33.7705L66.8608 1.48096C66.8608 1.35856 66.922 1.29736 67.0444 1.29736H72.3228C72.4451 1.29736 72.5063 1.35856 72.5063 1.48096L72.5522 33.7705C72.5522 33.9235 72.491 34 72.3687 34Z" fill="white"/>
<path d="M81.8008 34H77.0962C76.8514 34 76.729 33.8929 76.729 33.6787L76.6831 1.66455C76.6831 1.41976 76.8055 1.29736 77.0503 1.29736H81.2959L89.2363 19.8174L89.0068 1.66455C89.0068 1.41976 89.1445 1.29736 89.4199 1.29736H94.0786C94.2622 1.29736 94.354 1.41976 94.354 1.66455L94.3999 33.7246C94.3999 33.9082 94.3234 34 94.1704 34H90.0396L81.8926 16.6963L82.2368 33.6328C82.2368 33.8776 82.0915 34 81.8008 34Z" fill="white"/>
<path d="M107.091 34.459C105.393 34.459 103.863 34.0382 102.501 33.1968C101.124 32.3553 100.015 31.2231 99.1733 29.8003C98.3472 28.3774 97.9341 26.7863 97.9341 25.0269V10.1328C97.9341 8.41927 98.3548 6.85872 99.1963 5.45117C100.022 4.02832 101.132 2.89616 102.524 2.05469C103.916 1.19792 105.438 0.769531 107.091 0.769531C108.82 0.769531 110.38 1.18262 111.772 2.00879C113.165 2.85026 114.266 3.97477 115.077 5.38232C115.903 6.78988 116.316 8.37337 116.316 10.1328V12.29C116.316 12.4124 116.24 12.4736 116.087 12.4736H110.809C110.686 12.4736 110.625 12.4124 110.625 12.29V10.5C110.625 9.30664 110.288 8.31982 109.615 7.53955C108.942 6.75928 108.101 6.36914 107.091 6.36914C106.188 6.36914 105.385 6.74398 104.681 7.49365C103.977 8.24333 103.625 9.12305 103.625 10.1328V25.0269C103.625 26.0519 103.97 26.9393 104.658 27.689C105.347 28.4233 106.158 28.7905 107.091 28.7905C108.101 28.7905 108.942 28.431 109.615 27.7119C110.288 26.9775 110.625 26.0825 110.625 25.0269V22.709H107.343C107.175 22.709 107.091 22.6325 107.091 22.4795V17.2241C107.091 17.0711 107.175 16.9946 107.343 16.9946H116.133C116.255 16.9946 116.316 17.0711 116.316 17.2241V25.0269C116.316 26.7863 115.903 28.3774 115.077 29.8003C114.236 31.2231 113.126 32.3553 111.75 33.1968C110.373 34.0382 108.82 34.459 107.091 34.459Z" fill="white"/>
<path d="M141.882 34H136.581C136.443 34 136.374 33.9235 136.374 33.7705V6.96582H130.27C130.117 6.96582 130.04 6.88932 130.04 6.73633L130.086 1.48096C130.086 1.35856 130.147 1.29736 130.27 1.29736H148.124C148.292 1.29736 148.376 1.35856 148.376 1.48096V6.73633C148.376 6.88932 148.315 6.96582 148.193 6.96582H142.02L142.065 33.7705C142.065 33.9235 142.004 34 141.882 34Z" fill="white"/>
<path d="M149.088 33.7705L154.917 1.48096C154.948 1.35856 155.024 1.29736 155.146 1.29736H161.962C162.085 1.29736 162.161 1.35856 162.192 1.48096L167.792 33.7705C167.807 33.9235 167.746 34 167.608 34H162.398C162.245 34 162.161 33.9235 162.146 33.7705L161.641 30.3281H155.238L154.733 33.7705C154.718 33.9235 154.642 34 154.504 34H149.271C149.149 34 149.088 33.9235 149.088 33.7705ZM158.291 12.1064L156.179 25.3022H160.7L158.772 12.1064L158.497 10.3623L158.291 12.1064Z" fill="white"/>
<path d="M179.335 34H170.913C170.79 34 170.729 33.9235 170.729 33.7705L170.821 1.48096C170.821 1.35856 170.882 1.29736 171.004 1.29736H180.046C181.806 1.29736 183.405 1.72575 184.843 2.58252C186.25 3.43929 187.36 4.5791 188.17 6.00195C188.981 7.40951 189.387 8.93945 189.387 10.5918C189.387 11.9382 189.081 13.1927 188.469 14.3555C187.857 15.5182 187.13 16.4591 186.289 17.1782C187.191 18.0809 187.895 19.1289 188.4 20.3223C188.905 21.5156 189.157 22.7702 189.157 24.0859C189.157 25.9066 188.721 27.5666 187.849 29.0659C186.962 30.5653 185.776 31.7663 184.292 32.6689C182.808 33.5563 181.156 34 179.335 34ZM180.046 6.87402H176.466V14.2637H180.046C181.133 14.2637 182.012 13.8812 182.686 13.1162C183.359 12.3359 183.695 11.4945 183.695 10.5918C183.695 9.59733 183.336 8.73291 182.617 7.99854C181.898 7.24886 181.041 6.87402 180.046 6.87402ZM179.335 19.9551H176.466L176.42 28.2627H179.335C180.467 28.2627 181.439 27.8496 182.25 27.0234C183.06 26.1973 183.466 25.2181 183.466 24.0859C183.466 22.9538 183.06 21.9823 182.25 21.1714C181.439 20.3605 180.467 19.9551 179.335 19.9551Z" fill="white"/>
<path d="M207.907 34H192.714C192.592 34 192.531 33.9235 192.531 33.7705L192.577 1.52686C192.577 1.37386 192.653 1.29736 192.806 1.29736H198.039C198.192 1.29736 198.268 1.37386 198.268 1.52686L198.222 28.2168H207.907C208.06 28.2168 208.136 28.2933 208.136 28.4463V33.7705C208.136 33.9235 208.06 34 207.907 34Z" fill="white"/>
<path d="M226.587 34H211.395C211.273 34 211.211 33.9235 211.211 33.7705L211.257 1.48096C211.257 1.35856 211.319 1.29736 211.441 1.29736H226.542C226.664 1.29736 226.725 1.37386 226.725 1.52686V6.78223C226.725 6.90462 226.664 6.96582 226.542 6.96582H216.903V14.3096H226.542C226.664 14.3096 226.725 14.3708 226.725 14.4932L226.771 19.8174C226.771 19.9398 226.71 20.001 226.587 20.001H216.903V28.2168H226.587C226.71 28.2168 226.771 28.2933 226.771 28.4463V33.8164C226.771 33.9388 226.71 34 226.587 34Z" fill="white"/>
</svg>
